<?xml version="1.0" ?><svg id="Layer_1" style="enable-background:new 0 0 512 512;" version="1.1" viewBox="0 0 512 512" xml:space="preserve" xmlns="http://www.w3.org/2000/svg" xmlns:xlink="http://www.w3.org/1999/xlink"><style type="text/css">
	.st0{fill:#010101;}
	.st1{fill-rule:evenodd;clip-rule:evenodd;fill:#F58227;}
	.st2{fill-rule:evenodd;clip-rule:evenodd;fill:#FFFFFF;}
</style><g><path class="st0" d="M512,397.1c0,63.5-51.4,114.9-114.9,114.9H114.9C51.5,512,0,460.6,0,397.1V114.9C0,51.5,51.5,0,114.9,0h282.2   C460.6,0,512,51.5,512,114.9V397.1z"/><g><g><path class="st1" d="M258.5,366.3c-27,0-49.8-3.9-72-12.2c-24.7-8.7-46.7-22.1-66.3-39.6c-2-1.7-2.2-3.8-0.6-4.8     c1.4-0.8,2.8-0.3,3.9,0.3c2.8,1.7,5.6,3.1,8.7,4.8c10.4,5.6,21.1,10.1,32,14.3c14.3,5.2,29,9.1,43.6,11.9     c10.4,1.8,20.8,3.2,30.9,3.9c9,0.7,18,1,27,0.7c15.7-0.3,31.2-2.2,46.7-5.3c16.9-3.4,33.2-8.4,48.9-15.2c1.1-0.4,2-0.6,3.1-0.8     c2-0.1,3.9,0.8,4.8,2.7c0.6,1.5,0,3.4-1.7,4.6c-3.9,3.1-7.9,5.6-12.4,8.2c-21.6,12.9-45.5,20.5-70.3,24.3     C275.1,365.6,265.2,366.4,258.5,366.3z"/><path class="st1" d="M366.4,314.7c-7.3,0-13.8,1-20.2,1.5c-0.6,0.1-1.7,0.4-2.5,0.1c-1.7-0.1-2.2-1.3-1.4-2.8     c0.6-0.7,1.1-1.3,2-1.8c6.5-4.4,13.8-6.7,21.6-7.4c7.3-0.8,14.9-0.8,22.5,1.1c4.2,1.3,5.6,2.8,5.1,7.3     c-0.6,14.6-5.3,27.5-14.9,38.5c-1.1,1.1-2.2,2.1-3.7,2.8c-0.8,0.8-2,1.1-3.1,0.3c-0.8-0.8-0.8-2-0.3-2.8     c2.8-7.2,5.6-14.1,7.6-21.4c0.8-3.2,1.4-6.2,1.4-9.6c-0.6-2.5-1.7-3.9-4.2-4.8C372.9,315,369.2,314.5,366.4,314.7z"/></g><path class="st2" d="M333.5,284c-1.1-1.4-2-2.7-3.1-3.9c-4.8-6.2-7.6-13.2-7.9-20.8c0-22.8,0.6-45.4,0-68    c-0.3-4.9-1.1-9.6-2.5-14.3c-3.1-10.8-10.4-18.3-20.5-23.3c-11.2-5.9-23.1-8.2-36-7.9c-2.5,0.1-5.1,0-7.9,0.1    c-7.9,0.7-15.5,2.2-22.8,5.2c-18.3,7.2-30.1,20.2-33.7,39.9c-0.3,1.5-0.3,2.8,0.8,3.9c1.1,1.5,2.8,2.1,4.5,2.2    c9,1.1,17.4,2.2,26.4,3.2c2.2,0.4,3.9-0.4,5.1-2.7c0.8-0.8,1.1-2,1.4-3.1c0.8-3.2,2-6,3.9-8.4c5.9-7,13.8-10,22.8-8.9    c9.3,1.1,14.6,6.3,16.3,15c1.1,5.6,0.6,11,0.6,16.4c0,1.3-0.6,1.5-1.7,1.5c-7.6,0.6-15.2,1.3-22.8,2.2c-11,1.4-21.6,3.7-31.8,8.2    c-13.8,6.5-23.6,16.2-28.1,30.6c-2.8,9-2.8,18.1-1.7,27.3c2.2,17.7,14.9,30.9,32.1,34.6c7.3,1.4,14,1.3,21.1,0.6    c6.7-0.6,13.2-2.1,18.8-5.1c7-3.7,12.7-8.4,18-14.1c2-1.7,2-1.7,3.4,0.3c3.6,5.5,7.9,10.4,12.4,14.9c4.2,4.1,8.4,3.9,12.4,0.3    c6.2-5.8,12.9-11.4,19.7-17C335.8,290.4,336.1,287.4,333.5,284z M279.3,262.1c-1.7,6.2-4.5,11.9-9.3,16.4    c-4.8,4.6-10.7,7.2-17.7,6.2c-7-1-11.5-5.1-13.5-11.7c-3.1-10.1-2-20,5.1-28.3c4.5-5.1,10.4-7.7,16.9-9.1c5.9-1.4,12.1-1.5,18-1.7    c1.7-0.3,2.2,0.3,2.2,2c0,2.5,0,5.1,0,8.7C281,249.7,281,256.1,279.3,262.1z"/></g></g></svg>