<svg width="128" height="128" viewBox="0 0 128 128" fill="none" xmlns="http://www.w3.org/2000/svg">
<path fill-rule="evenodd" clip-rule="evenodd" d="M64 0C28.8 0 0 28.8 0 64C0 99.2 28.8 128 64 128C99.2 128 128 99.2 128 64C128 28.8 99.52 0 64 0ZM93.44 92.48C92.16 94.4 89.92 95.04 88 93.76C72.96 84.48 54.08 82.56 31.68 87.68C29.44 88.32 27.52 86.72 26.88 84.8C26.24 82.56 27.84 80.64 29.76 80C54.08 74.56 75.2 76.8 91.84 87.04C94.08 88 94.4 90.56 93.44 92.48ZM101.12 74.88C99.52 77.12 96.64 78.08 94.4 76.48C77.12 65.92 50.88 62.72 30.72 69.12C28.16 69.76 25.28 68.48 24.64 65.92C24 63.36 25.28 60.48 27.84 59.84C51.2 52.8 80 56.32 99.84 68.48C101.76 69.44 102.72 72.64 101.12 74.88ZM101.76 56.96C81.28 44.8 47.04 43.52 27.52 49.6C24.32 50.56 21.12 48.64 20.16 45.76C19.2 42.56 21.12 39.36 24 38.4C46.72 31.68 84.16 32.96 107.84 47.04C110.72 48.64 111.68 52.48 110.08 55.36C108.48 57.6 104.64 58.56 101.76 56.96Z" fill="#10BC4C"/>
</svg>
