<?xml version="1.0" ?><svg fill="none" height="1080" viewBox="0 0 1080 1080" width="1080" xmlns="http://www.w3.org/2000/svg"><rect height="760" rx="136.5" stroke="url(#paint0_linear)" stroke-width="27" width="760" x="157.5" y="159.5"/><path d="M667.041 338.5C674.374 337.167 680.874 338.833 686.541 343.5C692.208 348.167 695.041 354.167 695.041 361.5V618C695.041 641.667 688.374 660.167 675.041 673.5C661.708 686.5 643.374 693 620.041 693C604.041 693 590.874 688.833 580.541 680.5C570.208 671.833 565.041 661 565.041 648C565.041 631.667 571.541 618 584.541 607C597.541 596 614.374 590.5 635.041 590.5C642.708 590.5 650.874 591.833 659.541 594.5C659.874 594.5 660.208 594.333 660.541 594C660.874 594 661.041 593.833 661.041 593.5V428.5C661.041 427.5 660.541 426.667 659.541 426C658.541 425 657.541 424.667 656.541 425L469.041 461C466.374 461.667 465.041 463.333 465.041 466V668C465.041 691.667 458.374 710.167 445.041 723.5C431.708 736.5 413.374 743 390.041 743C374.041 743 360.874 738.667 350.541 730C340.208 721.667 335.041 711 335.041 698C335.041 681.667 341.541 668 354.541 657C367.541 646 384.374 640.5 405.041 640.5C412.708 640.5 420.874 641.833 429.541 644.5C429.874 644.5 430.208 644.333 430.541 644C430.874 644 431.041 643.833 431.041 643.5V411.5C431.041 403.167 433.541 395.833 438.541 389.5C443.874 382.833 450.541 378.833 458.541 377.5L667.041 338.5Z" fill="url(#paint1_linear)"/><defs><linearGradient gradientUnits="userSpaceOnUse" id="paint0_linear" x1="902" x2="241.5" y1="893" y2="146"><stop stop-color="#5AC8FA"/><stop offset="0.523465" stop-color="#AF52DE" stop-opacity="0.922227"/><stop offset="0.818643" stop-color="#FF2D55" stop-opacity="0.74"/><stop offset="1" stop-color="#FF3B30"/></linearGradient><linearGradient gradientUnits="userSpaceOnUse" id="paint1_linear" x1="170" x2="866" y1="188" y2="892"><stop offset="0.0635411" stop-color="#FB413E"/><stop offset="0.381554" stop-color="#FF3C32"/><stop offset="0.520016" stop-color="#AD69E3" stop-opacity="0.75"/><stop offset="0.629314" stop-color="#5DC4F9"/><stop offset="0.962717" stop-color="#60C2F8"/></linearGradient></defs></svg>