<?xml version="1.0" encoding="UTF-8"?><!DOCTYPE svg PUBLIC "-//W3C//DTD SVG 1.1//EN" "http://www.w3.org/Graphics/SVG/1.1/DTD/svg11.dtd"><svg xmlns="http://www.w3.org/2000/svg" xmlns:xlink="http://www.w3.org/1999/xlink" version="1.1" id="Credit_x5F_Cards" x="0px" y="0px" width="512px" height="512px" viewBox="0 0 512 512" xml:space="preserve"><path fill="#3F5EAB" d="M449.972 402.198L49.137 352.01c-11.646-1.458-19.904-12.081-18.446-23.728l28.33-226.272c1.458-11.646 12.081-19.905 23.728-18.447l400.835 50.188c11.646 1.458 19.904 12.082 18.446 23.728l-28.331 226.272c-1.458 11.646-12.081 19.905-23.727 18.447z"/><linearGradient id="SVGID_1_" gradientUnits="userSpaceOnUse" x1="60.1494" y1="466.3604" x2="406.2057" y2="120.3041"><stop offset="0" stop-color="#0FF"/><stop offset="1" stop-color="#FF7BAC"/></linearGradient><path fill="url(#SVGID_1_)" d="M435.159 428.604H31.195c-11.737 0-21.252-9.516-21.252-21.252v-228.04c0-11.737 9.515-21.251 21.252-21.251h403.964c11.737 0 21.252 9.515 21.252 21.251v228.04c0 11.736-9.515 21.252-21.252 21.252z"/><path fill="#FFF" d="M172.403 360.501c12.869 0 12.891-20 0-20H52.569c-12.869 0-12.89 20 0 20h119.834z"/><path fill="#FFF" d="M207.07 360.501h24.592c12.869 0 12.891-20 0-20H207.07c-12.869 0-12.89 20 0 20z"/><linearGradient id="SVGID_2_" gradientUnits="userSpaceOnUse" x1="287.9316" y1="354.0557" x2="362.6396" y2="354.0557"><stop offset="0" stop-color="#B3B3B3"/><stop offset="0.0161" stop-color="#B7B7B7"/><stop offset="0.152" stop-color="#D1D1D1"/><stop offset="0.3016" stop-color="#E5E5E5"/><stop offset="0.4698" stop-color="#F4F4F4"/><stop offset="0.6721" stop-color="#FCFCFC"/><stop offset="1" stop-color="#FFF"/></linearGradient><circle fill="url(#SVGID_2_)" cx="325.286" cy="354.056" r="37.354"/><circle fill="#3F5EAB" cx="385.619" cy="354.056" r="37.354"/><path fill="#FFF" d="M9.943 249.209c14.844 0 444.285.621 445.717 0 .177-.077.546 0 .751 0 .184 0 .19-25 0-25-14.843 0-444.284-.621-445.716 0-.178.077-.547 0-.752 0-.183 0-.19 25 0 25z"/><metadata><rdf:RDF xmlns:rdf="http://www.w3.org/1999/02/22-rdf-syntax-ns#" xmlns:rdfs="http://www.w3.org/2000/01/rdf-schema#" xmlns:dc="http://purl.org/dc/elements/1.1/"><rdf:Description about="https://iconscout.com/legal#licenses" dc:title="credit-card,card,debit,transaction,payment,money" dc:description="credit-card,card,debit,transaction,payment,money" dc:publisher="Iconscout" dc:date="2018-07-14" dc:format="image/svg+xml" dc:language="en"><dc:creator><rdf:Bag><rdf:li>Chanut Is Industries</rdf:li></rdf:Bag></dc:creator></rdf:Description></rdf:RDF></metadata></svg>