<?xml version="1.0" ?><svg style="enable-background:new 0 0 48 48;" version="1.1" viewBox="0 0 48 48" xml:space="preserve" xmlns="http://www.w3.org/2000/svg" xmlns:xlink="http://www.w3.org/1999/xlink"><g id="Icons"><path d="M38.52824,34.84484H9.44991c-1.21976,0-2.20851-0.98886-2.20851-2.20851V15.3497   c0-1.21976,0.98886-2.20865,2.20862-2.20865h29.07822c1.21976,0,2.20862,0.98888,2.20862,2.20865v17.28651   C40.73686,33.85598,39.748,34.84484,38.52824,34.84484z" style="fill:#F9F9F9;"/><path d="M15.5128,16.50497h-3.92923c-0.54759,0-0.99157,0.44398-0.99157,0.99158v3.14432   c0,0.54759,0.44398,0.99147,0.99157,0.99147h3.92923c0.54759,0,0.99157-0.44388,0.99157-0.99147v-3.14432   C16.50438,16.94896,16.06039,16.50497,15.5128,16.50497z" style="fill:#FFC601;"/><path d="   M38.52824,34.84484H9.44991c-1.21976,0-2.20851-0.98886-2.20851-2.20851V15.3497c0-1.21976,0.98886-2.20865,2.20862-2.20865   h29.07822c1.21976,0,2.20862,0.98888,2.20862,2.20865v17.28651C40.73686,33.85598,39.748,34.84484,38.52824,34.84484z" style="fill:none;stroke:#303030;stroke-width:0.8;stroke-linecap:round;stroke-linejoin:round;stroke-miterlimit:10;"/><path d="   M15.5128,16.50497h-3.92923c-0.54759,0-0.99157,0.44398-0.99157,0.99158v3.14432c0,0.54759,0.44398,0.99147,0.99157,0.99147   h3.92923c0.54759,0,0.99157-0.44388,0.99157-0.99147v-3.14432C16.50438,16.94896,16.06039,16.50497,15.5128,16.50497z" style="fill:none;stroke:#303030;stroke-width:0.5;stroke-linecap:round;stroke-linejoin:round;stroke-miterlimit:10;"/><path d="   M12.69984,16.50595c-0.11219,0.2408-0.24319,0.59608-0.32255,1.03789c-0.07708,0.43007-0.10284,0.94668-0.01163,1.52416   c0.07469,0.46529,0.22428,0.96787,0.49084,1.50079" style="fill:none;stroke:#303030;stroke-width:0.5;stroke-linecap:round;stroke-linejoin:round;stroke-miterlimit:10;"/><line style="fill:none;stroke:#303030;stroke-width:0.5;stroke-linecap:round;stroke-linejoin:round;stroke-miterlimit:10;" x1="10.592" x2="16.50438" y1="20.56824" y2="20.56824"/><line style="fill:none;stroke:#303030;stroke-width:0.5;stroke-linecap:round;stroke-linejoin:round;stroke-miterlimit:10;" x1="12.37729" x2="10.59124" y1="17.54384" y2="17.54384"/><line style="fill:none;stroke:#303030;stroke-width:0.5;stroke-linecap:round;stroke-linejoin:round;stroke-miterlimit:10;" x1="12.36566" x2="10.59124" y1="19.068" y2="19.068"/><path d="   M14.52318,16.50595c0.10991,0.2408,0.2408,0.59608,0.32038,1.03789c0.07708,0.43007,0.10284,0.94668,0.01163,1.52416   c-0.07479,0.46529-0.22449,0.96787-0.49084,1.50079" style="fill:none;stroke:#303030;stroke-width:0.5;stroke-linecap:round;stroke-linejoin:round;stroke-miterlimit:10;"/><line style="fill:none;stroke:#303030;stroke-width:0.5;stroke-linecap:round;stroke-linejoin:round;stroke-miterlimit:10;" x1="16.50329" x2="14.84356" y1="17.54384" y2="17.54384"/><line style="fill:none;stroke:#303030;stroke-width:0.5;stroke-linecap:round;stroke-linejoin:round;stroke-miterlimit:10;" x1="16.50329" x2="14.85519" y1="19.068" y2="19.068"/><line style="fill:none;stroke:#303030;stroke-width:0.8;stroke-linecap:round;stroke-linejoin:round;stroke-miterlimit:10;" x1="26.5714" x2="36.96189" y1="17.03626" y2="17.03626"/><line style="fill:none;stroke:#303030;stroke-width:0.8;stroke-linecap:round;stroke-linejoin:round;stroke-miterlimit:10;" x1="10.48367" x2="22.00663" y1="28.73794" y2="28.73794"/><path d="M10.03696,24.39527c0-0.06653,0.01565-0.12632,0.04653-0.1784   c0.03098-0.05197,0.07262-0.09635,0.12469-0.13404c0.05207-0.03761,0.11241-0.06534,0.18046-0.08523   c0.06816-0.01892,0.13959-0.0287,0.21373-0.0287c0.07479,0,0.14568,0.00978,0.21438,0.0287   c0.06805,0.01989,0.12796,0.04762,0.18003,0.08523c0.05262,0.0377,0.0936,0.08208,0.12513,0.13404   c0.03044,0.05207,0.04599,0.11187,0.04599,0.1784v1.16736c0,0.06762-0.01555,0.12741-0.04599,0.17949   c-0.03153,0.05207-0.07251,0.09643-0.12513,0.13404c-0.05207,0.03653-0.11197,0.06531-0.18003,0.08534   c-0.06871,0.01881-0.13959,0.02881-0.21438,0.02881c-0.07414,0-0.14557-0.01-0.21373-0.02881   c-0.06805-0.02003-0.12839-0.04881-0.18046-0.08534c-0.05207-0.03761-0.09371-0.08197-0.12469-0.13404   c-0.03088-0.05207-0.04653-0.11187-0.04653-0.17949V24.39527z M10.41692,25.56264c0,0.04109,0.01718,0.07534,0.05196,0.10197   c0.03446,0.02772,0.07936,0.04096,0.1335,0.04096c0.0549,0,0.09969-0.01324,0.13415-0.04096   c0.03479-0.02664,0.05196-0.06088,0.05196-0.10197v-1.16736c0-0.03992-0.01718-0.07425-0.05196-0.10189   c-0.03446-0.02672-0.07925-0.03998-0.13415-0.03998c-0.05414,0-0.09904,0.01326-0.1335,0.03998   c-0.03479,0.02764-0.05196,0.06197-0.05196,0.10189V25.56264z" style="fill:#303030;"/><path d="M11.42099,24.39527c0-0.06653,0.01555-0.12632,0.04653-0.1784   c0.03109-0.05197,0.07251-0.09635,0.12459-0.13404c0.05207-0.03761,0.11241-0.06534,0.18057-0.08523   c0.06805-0.01892,0.13959-0.0287,0.21373-0.0287c0.07469,0,0.14557,0.00978,0.21438,0.0287   c0.06816,0.01989,0.12796,0.04762,0.17992,0.08523c0.05273,0.0377,0.0936,0.08208,0.12513,0.13404   c0.03055,0.05207,0.04609,0.11187,0.04609,0.1784v1.16736c0,0.06762-0.01555,0.12741-0.04609,0.17949   c-0.03153,0.05207-0.0724,0.09643-0.12513,0.13404c-0.05197,0.03653-0.11176,0.06531-0.17992,0.08534   c-0.06882,0.01881-0.1397,0.02881-0.21438,0.02881c-0.07414,0-0.14568-0.01-0.21373-0.02881   c-0.06816-0.02003-0.1285-0.04881-0.18057-0.08534c-0.05207-0.03761-0.09349-0.08197-0.12459-0.13404   c-0.03098-0.05207-0.04653-0.11187-0.04653-0.17949V24.39527z M11.80095,25.56264c0,0.04109,0.01718,0.07534,0.05207,0.10197   c0.03424,0.02772,0.07914,0.04096,0.13339,0.04096c0.0549,0,0.09969-0.01324,0.13404-0.04096   c0.0349-0.02664,0.05207-0.06088,0.05207-0.10197v-1.16736c0-0.03992-0.01718-0.07425-0.05207-0.10189   c-0.03435-0.02672-0.07914-0.03998-0.13404-0.03998c-0.05425,0-0.09915,0.01326-0.13339,0.03998   c-0.0349,0.02764-0.05207,0.06197-0.05207,0.10189V25.56264z" style="fill:#303030;"/><path d="M12.80491,24.39527c0-0.06653,0.01555-0.12632,0.04653-0.1784   c0.03109-0.05197,0.07262-0.09635,0.12469-0.13404c0.05207-0.03761,0.11241-0.06534,0.18057-0.08523   c0.06806-0.01892,0.13948-0.0287,0.21362-0.0287c0.0749,0,0.14578,0.00978,0.21438,0.0287   c0.06816,0.01989,0.12796,0.04762,0.18003,0.08523c0.05262,0.0377,0.0936,0.08208,0.12524,0.13404   c0.03033,0.05207,0.04588,0.11187,0.04588,0.1784v1.16736c0,0.06762-0.01555,0.12741-0.04588,0.17949   c-0.03164,0.05207-0.07262,0.09643-0.12524,0.13404c-0.05207,0.03653-0.11187,0.06531-0.18003,0.08534   c-0.0686,0.01881-0.13948,0.02881-0.21438,0.02881c-0.07414,0-0.14557-0.01-0.21362-0.02881   c-0.06816-0.02003-0.1285-0.04881-0.18057-0.08534c-0.05207-0.03761-0.0936-0.08197-0.12469-0.13404   c-0.03098-0.05207-0.04653-0.11187-0.04653-0.17949V24.39527z M13.18498,25.56264c0,0.04109,0.01707,0.07534,0.05196,0.10197   c0.03424,0.02772,0.07925,0.04096,0.13339,0.04096c0.0549,0,0.09969-0.01324,0.13415-0.04096   c0.0349-0.02664,0.05196-0.06088,0.05196-0.10197v-1.16736c0-0.03992-0.01707-0.07425-0.05196-0.10189   c-0.03446-0.02672-0.07925-0.03998-0.13415-0.03998c-0.05414,0-0.09915,0.01326-0.13339,0.03998   c-0.0349,0.02764-0.05196,0.06197-0.05196,0.10189V25.56264z" style="fill:#303030;"/><path d="M14.18894,24.39527c0-0.06653,0.01555-0.12632,0.04653-0.1784   c0.03109-0.05197,0.07251-0.09635,0.12459-0.13404c0.05207-0.03761,0.11241-0.06534,0.18057-0.08523   c0.06805-0.01892,0.13959-0.0287,0.21384-0.0287c0.07469,0,0.14557,0.00978,0.21427,0.0287   c0.06816,0.01989,0.12785,0.04762,0.17992,0.08523c0.05262,0.0377,0.0936,0.08208,0.12524,0.13404   c0.03044,0.05207,0.04599,0.11187,0.04599,0.1784v1.16736c0,0.06762-0.01555,0.12741-0.04599,0.17949   c-0.03164,0.05207-0.07262,0.09643-0.12524,0.13404c-0.05207,0.03653-0.11176,0.06531-0.17992,0.08534   c-0.06871,0.01881-0.13959,0.02881-0.21427,0.02881c-0.07425,0-0.14579-0.01-0.21384-0.02881   c-0.06816-0.02003-0.1285-0.04881-0.18057-0.08534c-0.05207-0.03761-0.09349-0.08197-0.12459-0.13404   c-0.03098-0.05207-0.04653-0.11187-0.04653-0.17949V24.39527z M14.5689,25.56264c0,0.04109,0.01718,0.07534,0.05207,0.10197   c0.03435,0.02772,0.07914,0.04096,0.1335,0.04096c0.05479,0,0.09969-0.01324,0.13393-0.04096   c0.0349-0.02664,0.05207-0.06088,0.05207-0.10197v-1.16736c0-0.03992-0.01718-0.07425-0.05207-0.10189   c-0.03425-0.02672-0.07914-0.03998-0.13393-0.03998c-0.05436,0-0.09915,0.01326-0.1335,0.03998   c-0.0349,0.02764-0.05207,0.06197-0.05207,0.10189V25.56264z" style="fill:#303030;"/><path d="M16.95646,24.39527c0-0.06653,0.01544-0.12632,0.04642-0.1784   c0.03098-0.05197,0.07251-0.09635,0.12458-0.13404c0.05207-0.03761,0.11252-0.06534,0.18057-0.08523   c0.06816-0.01892,0.13959-0.0287,0.21384-0.0287c0.07469,0,0.14557,0.00978,0.21427,0.0287   c0.06805,0.01989,0.12796,0.04762,0.18003,0.08523c0.05251,0.0377,0.0936,0.08208,0.12513,0.13404   c0.03055,0.05207,0.04588,0.11187,0.04588,0.1784v1.16736c0,0.06762-0.01533,0.12741-0.04588,0.17949   c-0.03153,0.05207-0.07262,0.09643-0.12513,0.13404c-0.05207,0.03653-0.11197,0.06531-0.18003,0.08534   c-0.06871,0.01881-0.13959,0.02881-0.21427,0.02881c-0.07425,0-0.14568-0.01-0.21384-0.02881   c-0.06806-0.02003-0.1285-0.04881-0.18057-0.08534c-0.05207-0.03761-0.0936-0.08197-0.12458-0.13404   c-0.03098-0.05207-0.04642-0.11187-0.04642-0.17949V24.39527z M17.33631,25.56264c0,0.04109,0.01718,0.07534,0.05207,0.10197   c0.03436,0.02772,0.07925,0.04096,0.1335,0.04096c0.05468,0,0.09969-0.01324,0.13404-0.04096   c0.03479-0.02664,0.05207-0.06088,0.05207-0.10197v-1.16736c0-0.03992-0.01729-0.07425-0.05207-0.10189   c-0.03435-0.02672-0.07936-0.03998-0.13404-0.03998c-0.05425,0-0.09915,0.01326-0.1335,0.03998   c-0.0349,0.02764-0.05207,0.06197-0.05207,0.10189V25.56264z" style="fill:#303030;"/><path d="M18.34038,24.39527c0-0.06653,0.01555-0.12632,0.04653-0.1784   c0.03098-0.05197,0.07262-0.09635,0.12469-0.13404c0.05196-0.03761,0.1123-0.06534,0.18036-0.08523   c0.06816-0.01892,0.1397-0.0287,0.21384-0.0287c0.07479,0,0.14568,0.00978,0.21438,0.0287   c0.06806,0.01989,0.12796,0.04762,0.18003,0.08523c0.05262,0.0377,0.09349,0.08208,0.12502,0.13404   c0.03055,0.05207,0.04609,0.11187,0.04609,0.1784v1.16736c0,0.06762-0.01554,0.12741-0.04609,0.17949   c-0.03153,0.05207-0.0724,0.09643-0.12502,0.13404c-0.05207,0.03653-0.11197,0.06531-0.18003,0.08534   c-0.06871,0.01881-0.13959,0.02881-0.21438,0.02881c-0.07414,0-0.14568-0.01-0.21384-0.02881   c-0.06805-0.02003-0.12839-0.04881-0.18036-0.08534c-0.05207-0.03761-0.09371-0.08197-0.12469-0.13404   c-0.03098-0.05207-0.04653-0.11187-0.04653-0.17949V24.39527z M18.72023,25.56264c0,0.04109,0.01729,0.07534,0.05207,0.10197   c0.03435,0.02772,0.07925,0.04096,0.1335,0.04096c0.0549,0,0.09969-0.01324,0.13404-0.04096   c0.03479-0.02664,0.05207-0.06088,0.05207-0.10197v-1.16736c0-0.03992-0.01728-0.07425-0.05207-0.10189   c-0.03435-0.02672-0.07914-0.03998-0.13404-0.03998c-0.05425,0-0.09915,0.01326-0.1335,0.03998   c-0.03479,0.02764-0.05207,0.06197-0.05207,0.10189V25.56264z" style="fill:#303030;"/><path d="M19.72441,24.39527c0-0.06653,0.01555-0.12632,0.04642-0.1784   c0.03109-0.05197,0.07262-0.09635,0.12469-0.13404c0.05207-0.03761,0.11241-0.06534,0.18057-0.08523   c0.06805-0.01892,0.13948-0.0287,0.21362-0.0287c0.0749,0,0.14579,0.00978,0.21438,0.0287   c0.06816,0.01989,0.12795,0.04762,0.18003,0.08523c0.05262,0.0377,0.0936,0.08208,0.12513,0.13404   c0.03044,0.05207,0.04598,0.11187,0.04598,0.1784v1.16736c0,0.06762-0.01554,0.12741-0.04598,0.17949   c-0.03153,0.05207-0.07251,0.09643-0.12513,0.13404c-0.05207,0.03653-0.11187,0.06531-0.18003,0.08534   c-0.0686,0.01881-0.13948,0.02881-0.21438,0.02881c-0.07414,0-0.14557-0.01-0.21362-0.02881   c-0.06816-0.02003-0.1285-0.04881-0.18057-0.08534c-0.05207-0.03761-0.0936-0.08197-0.12469-0.13404   c-0.03087-0.05207-0.04642-0.11187-0.04642-0.17949V24.39527z M20.10436,25.56264c0,0.04109,0.01707,0.07534,0.05207,0.10197   c0.03424,0.02772,0.07914,0.04096,0.13328,0.04096c0.0549,0,0.0998-0.01324,0.13415-0.04096   c0.0349-0.02664,0.05207-0.06088,0.05207-0.10197v-1.16736c0-0.03992-0.01718-0.07425-0.05207-0.10189   c-0.03435-0.02672-0.07925-0.03998-0.13415-0.03998c-0.05414,0-0.09904,0.01326-0.13328,0.03998   c-0.03501,0.02764-0.05207,0.06197-0.05207,0.10189V25.56264z" style="fill:#303030;"/><path d="M21.10833,24.39527c0-0.06653,0.01554-0.12632,0.04653-0.1784   c0.03109-0.05197,0.07262-0.09635,0.12459-0.13404c0.05207-0.03761,0.11241-0.06534,0.18057-0.08523   c0.06806-0.01892,0.13959-0.0287,0.21373-0.0287c0.0749,0,0.14578,0.00978,0.21438,0.0287   c0.06816,0.01989,0.12796,0.04762,0.18003,0.08523c0.05262,0.0377,0.09349,0.08208,0.12513,0.13404   c0.03044,0.05207,0.04599,0.11187,0.04599,0.1784v1.16736c0,0.06762-0.01555,0.12741-0.04599,0.17949   c-0.03164,0.05207-0.07251,0.09643-0.12513,0.13404c-0.05207,0.03653-0.11187,0.06531-0.18003,0.08534   c-0.0686,0.01881-0.13948,0.02881-0.21438,0.02881c-0.07414,0-0.14568-0.01-0.21373-0.02881   c-0.06816-0.02003-0.1285-0.04881-0.18057-0.08534c-0.05196-0.03761-0.09349-0.08197-0.12459-0.13404   c-0.03098-0.05207-0.04653-0.11187-0.04653-0.17949V24.39527z M21.48829,25.56264c0,0.04109,0.01718,0.07534,0.05207,0.10197   c0.03424,0.02772,0.07914,0.04096,0.13339,0.04096c0.0549,0,0.09969-0.01324,0.13404-0.04096   c0.03501-0.02664,0.05207-0.06088,0.05207-0.10197v-1.16736c0-0.03992-0.01707-0.07425-0.05207-0.10189   c-0.03435-0.02672-0.07914-0.03998-0.13404-0.03998c-0.05425,0-0.09915,0.01326-0.13339,0.03998   c-0.0349,0.02764-0.05207,0.06197-0.05207,0.10189V25.56264z" style="fill:#303030;"/><path d="M23.87585,24.39527c0-0.06653,0.01544-0.12632,0.04653-0.1784   c0.03087-0.05197,0.0724-0.09635,0.12448-0.13404c0.05207-0.03761,0.11252-0.06534,0.18057-0.08523   c0.06816-0.01892,0.13959-0.0287,0.21384-0.0287c0.07469,0,0.14557,0.00978,0.21438,0.0287   c0.06805,0.01989,0.12774,0.04762,0.17981,0.08523c0.05262,0.0377,0.09371,0.08208,0.12524,0.13404   c0.03055,0.05207,0.04598,0.11187,0.04598,0.1784v1.16736c0,0.06762-0.01544,0.12741-0.04598,0.17949   c-0.03153,0.05207-0.07262,0.09643-0.12524,0.13404c-0.05207,0.03653-0.11176,0.06531-0.17981,0.08534   c-0.06882,0.01881-0.1397,0.02881-0.21438,0.02881c-0.07425,0-0.14568-0.01-0.21384-0.02881   c-0.06805-0.02003-0.1285-0.04881-0.18057-0.08534c-0.05207-0.03761-0.0936-0.08197-0.12448-0.13404   c-0.03109-0.05207-0.04653-0.11187-0.04653-0.17949V24.39527z M24.25569,25.56264c0,0.04109,0.01718,0.07534,0.05207,0.10197   c0.03435,0.02772,0.07914,0.04096,0.1335,0.04096c0.05479,0,0.09969-0.01324,0.13404-0.04096   c0.03479-0.02664,0.05207-0.06088,0.05207-0.10197v-1.16736c0-0.03992-0.01728-0.07425-0.05207-0.10189   c-0.03435-0.02672-0.07925-0.03998-0.13404-0.03998c-0.05436,0-0.09915,0.01326-0.1335,0.03998   c-0.0349,0.02764-0.05207,0.06197-0.05207,0.10189V25.56264z" style="fill:#303030;"/><path d="M25.25977,24.39527c0-0.06653,0.01544-0.12632,0.04653-0.1784   c0.03098-0.05197,0.07251-0.09635,0.12459-0.13404c0.05197-0.03761,0.11252-0.06534,0.18057-0.08523   c0.06816-0.01892,0.13959-0.0287,0.21373-0.0287c0.07479,0,0.14568,0.00978,0.21438,0.0287   c0.06805,0.01989,0.12795,0.04762,0.18003,0.08523c0.05251,0.0377,0.09349,0.08208,0.12513,0.13404   c0.03044,0.05207,0.04588,0.11187,0.04588,0.1784v1.16736c0,0.06762-0.01544,0.12741-0.04588,0.17949   c-0.03164,0.05207-0.07262,0.09643-0.12513,0.13404c-0.05207,0.03653-0.11197,0.06531-0.18003,0.08534   c-0.06871,0.01881-0.13959,0.02881-0.21438,0.02881c-0.07414,0-0.14557-0.01-0.21373-0.02881   c-0.06805-0.02003-0.12861-0.04881-0.18057-0.08534c-0.05207-0.03761-0.0936-0.08197-0.12459-0.13404   c-0.03109-0.05207-0.04653-0.11187-0.04653-0.17949V24.39527z M25.63961,25.56264c0,0.04109,0.01729,0.07534,0.05207,0.10197   c0.03435,0.02772,0.07925,0.04096,0.1335,0.04096c0.05479,0,0.09969-0.01324,0.13404-0.04096   c0.0349-0.02664,0.05207-0.06088,0.05207-0.10197v-1.16736c0-0.03992-0.01718-0.07425-0.05207-0.10189   c-0.03435-0.02672-0.07925-0.03998-0.13404-0.03998c-0.05425,0-0.09915,0.01326-0.1335,0.03998   c-0.03479,0.02764-0.05207,0.06197-0.05207,0.10189V25.56264z" style="fill:#303030;"/><path d="M26.6438,24.39527c0-0.06653,0.01554-0.12632,0.04642-0.1784   c0.03098-0.05197,0.07262-0.09635,0.12469-0.13404c0.05207-0.03761,0.11241-0.06534,0.18047-0.08523   c0.06816-0.01892,0.13959-0.0287,0.21384-0.0287c0.07469,0,0.14557,0.00978,0.21427,0.0287   c0.06805,0.01989,0.12796,0.04762,0.18003,0.08523c0.05262,0.0377,0.0936,0.08208,0.12513,0.13404   c0.03055,0.05207,0.04609,0.11187,0.04609,0.1784v1.16736c0,0.06762-0.01555,0.12741-0.04609,0.17949   c-0.03153,0.05207-0.07251,0.09643-0.12513,0.13404c-0.05207,0.03653-0.11197,0.06531-0.18003,0.08534   c-0.06871,0.01881-0.13959,0.02881-0.21427,0.02881c-0.07425,0-0.14568-0.01-0.21384-0.02881   c-0.06806-0.02003-0.12839-0.04881-0.18047-0.08534c-0.05207-0.03761-0.09371-0.08197-0.12469-0.13404   c-0.03088-0.05207-0.04642-0.11187-0.04642-0.17949V24.39527z M27.02365,25.56264c0,0.04109,0.01718,0.07534,0.05207,0.10197   c0.03435,0.02772,0.07925,0.04096,0.1335,0.04096c0.0549,0,0.09969-0.01324,0.13404-0.04096   c0.03479-0.02664,0.05207-0.06088,0.05207-0.10197v-1.16736c0-0.03992-0.01729-0.07425-0.05207-0.10189   c-0.03435-0.02672-0.07914-0.03998-0.13404-0.03998c-0.05425,0-0.09915,0.01326-0.1335,0.03998   c-0.0349,0.02764-0.05207,0.06197-0.05207,0.10189V25.56264z" style="fill:#303030;"/><path d="M28.02772,24.39527c0-0.06653,0.01555-0.12632,0.04653-0.1784   c0.03109-0.05197,0.07262-0.09635,0.12469-0.13404c0.05196-0.03761,0.1123-0.06534,0.18057-0.08523   c0.06795-0.01892,0.13948-0.0287,0.21362-0.0287c0.0749,0,0.14578,0.00978,0.21438,0.0287   c0.06816,0.01989,0.12796,0.04762,0.18003,0.08523c0.05262,0.0377,0.09349,0.08208,0.12502,0.13404   c0.03055,0.05207,0.04609,0.11187,0.04609,0.1784v1.16736c0,0.06762-0.01554,0.12741-0.04609,0.17949   c-0.03153,0.05207-0.0724,0.09643-0.12502,0.13404c-0.05207,0.03653-0.11187,0.06531-0.18003,0.08534   c-0.0686,0.01881-0.13948,0.02881-0.21438,0.02881c-0.07414,0-0.14568-0.01-0.21362-0.02881   c-0.06827-0.02003-0.12861-0.04881-0.18057-0.08534c-0.05207-0.03761-0.0936-0.08197-0.12469-0.13404   c-0.03098-0.05207-0.04653-0.11187-0.04653-0.17949V24.39527z M28.40767,25.56264c0,0.04109,0.01718,0.07534,0.05207,0.10197   c0.03424,0.02772,0.07914,0.04096,0.13339,0.04096c0.0549,0,0.09969-0.01324,0.13404-0.04096   c0.03501-0.02664,0.05207-0.06088,0.05207-0.10197v-1.16736c0-0.03992-0.01707-0.07425-0.05207-0.10189   c-0.03436-0.02672-0.07914-0.03998-0.13404-0.03998c-0.05425,0-0.09915,0.01326-0.13339,0.03998   c-0.0349,0.02764-0.05207,0.06197-0.05207,0.10189V25.56264z" style="fill:#303030;"/><path d="M30.79513,24.39527c0-0.06653,0.01554-0.12632,0.04664-0.1784   c0.03098-0.05197,0.07251-0.09635,0.12448-0.13404c0.05207-0.03761,0.11241-0.06534,0.18057-0.08523   c0.06816-0.01892,0.13948-0.0287,0.21384-0.0287c0.07469,0,0.14568,0.00978,0.21427,0.0287   c0.06816,0.01989,0.12796,0.04762,0.17992,0.08523c0.05273,0.0377,0.09371,0.08208,0.12524,0.13404   c0.03044,0.05207,0.04599,0.11187,0.04599,0.1784v1.16736c0,0.06762-0.01555,0.12741-0.04599,0.17949   c-0.03153,0.05207-0.07251,0.09643-0.12524,0.13404c-0.05196,0.03653-0.11176,0.06531-0.17992,0.08534   c-0.0686,0.01881-0.13959,0.02881-0.21427,0.02881c-0.07436,0-0.14568-0.01-0.21384-0.02881   c-0.06816-0.02003-0.1285-0.04881-0.18057-0.08534c-0.05196-0.03761-0.09349-0.08197-0.12448-0.13404   c-0.03109-0.05207-0.04664-0.11187-0.04664-0.17949V24.39527z M31.17508,25.56264c0,0.04109,0.01718,0.07534,0.05207,0.10197   c0.03435,0.02772,0.07914,0.04096,0.1335,0.04096c0.05479,0,0.09969-0.01324,0.13393-0.04096   c0.0349-0.02664,0.05207-0.06088,0.05207-0.10197v-1.16736c0-0.03992-0.01718-0.07425-0.05207-0.10189   c-0.03424-0.02672-0.07914-0.03998-0.13393-0.03998c-0.05436,0-0.09915,0.01326-0.1335,0.03998   c-0.0349,0.02764-0.05207,0.06197-0.05207,0.10189V25.56264z" style="fill:#303030;"/><path d="M32.17916,24.39527c0-0.06653,0.01544-0.12632,0.04653-0.1784   c0.03098-0.05197,0.07251-0.09635,0.12458-0.13404c0.05207-0.03761,0.11252-0.06534,0.18057-0.08523   c0.06816-0.01892,0.13959-0.0287,0.21373-0.0287c0.07479,0,0.14568,0.00978,0.21439,0.0287   c0.06805,0.01989,0.12785,0.04762,0.17992,0.08523c0.05262,0.0377,0.09371,0.08208,0.12524,0.13404   c0.03044,0.05207,0.04588,0.11187,0.04588,0.1784v1.16736c0,0.06762-0.01543,0.12741-0.04588,0.17949   c-0.03152,0.05207-0.07262,0.09643-0.12524,0.13404c-0.05207,0.03653-0.11187,0.06531-0.17992,0.08534   c-0.06871,0.01881-0.13959,0.02881-0.21439,0.02881c-0.07414,0-0.14557-0.01-0.21373-0.02881   c-0.06805-0.02003-0.1285-0.04881-0.18057-0.08534c-0.05207-0.03761-0.0936-0.08197-0.12458-0.13404   c-0.03109-0.05207-0.04653-0.11187-0.04653-0.17949V24.39527z M32.559,25.56264c0,0.04109,0.01729,0.07534,0.05207,0.10197   c0.03436,0.02772,0.07925,0.04096,0.1335,0.04096c0.05479,0,0.09969-0.01324,0.13416-0.04096   c0.03479-0.02664,0.05196-0.06088,0.05196-0.10197v-1.16736c0-0.03992-0.01718-0.07425-0.05196-0.10189   c-0.03446-0.02672-0.07936-0.03998-0.13416-0.03998c-0.05424,0-0.09914,0.01326-0.1335,0.03998   c-0.03479,0.02764-0.05207,0.06197-0.05207,0.10189V25.56264z" style="fill:#303030;"/><path d="M33.56319,24.39527c0-0.06653,0.01543-0.12632,0.04653-0.1784   c0.03088-0.05197,0.0724-0.09635,0.12448-0.13404c0.05207-0.03761,0.11252-0.06534,0.18057-0.08523   c0.06816-0.01892,0.13959-0.0287,0.21384-0.0287c0.07468,0,0.14557,0.00978,0.21438,0.0287   c0.06805,0.01989,0.12796,0.04762,0.17992,0.08523c0.05262,0.0377,0.0936,0.08208,0.12513,0.13404   c0.03055,0.05207,0.04599,0.11187,0.04599,0.1784v1.16736c0,0.06762-0.01544,0.12741-0.04599,0.17949   c-0.03153,0.05207-0.07251,0.09643-0.12513,0.13404c-0.05196,0.03653-0.11187,0.06531-0.17992,0.08534   c-0.06882,0.01881-0.1397,0.02881-0.21438,0.02881c-0.07425,0-0.14568-0.01-0.21384-0.02881   c-0.06805-0.02003-0.1285-0.04881-0.18057-0.08534c-0.05207-0.03761-0.0936-0.08197-0.12448-0.13404   c-0.03109-0.05207-0.04653-0.11187-0.04653-0.17949V24.39527z M33.94304,25.56264c0,0.04109,0.01728,0.07534,0.05207,0.10197   c0.03436,0.02772,0.07925,0.04096,0.1335,0.04096c0.05479,0,0.09969-0.01324,0.13404-0.04096   c0.03479-0.02664,0.05207-0.06088,0.05207-0.10197v-1.16736c0-0.03992-0.01728-0.07425-0.05207-0.10189   c-0.03435-0.02672-0.07925-0.03998-0.13404-0.03998c-0.05425,0-0.09915,0.01326-0.1335,0.03998   c-0.03479,0.02764-0.05207,0.06197-0.05207,0.10189V25.56264z" style="fill:#303030;"/><path d="M34.94711,24.39527c0-0.06653,0.01555-0.12632,0.04653-0.1784   c0.03098-0.05197,0.07262-0.09635,0.12469-0.13404c0.05207-0.03761,0.11241-0.06534,0.18047-0.08523   c0.06816-0.01892,0.13959-0.0287,0.21373-0.0287c0.07479,0,0.14568,0.00978,0.21438,0.0287   c0.06806,0.01989,0.12796,0.04762,0.18003,0.08523c0.05262,0.0377,0.0936,0.08208,0.12513,0.13404   c0.03044,0.05207,0.04599,0.11187,0.04599,0.1784v1.16736c0,0.06762-0.01555,0.12741-0.04599,0.17949   c-0.03153,0.05207-0.07251,0.09643-0.12513,0.13404c-0.05207,0.03653-0.11197,0.06531-0.18003,0.08534   c-0.06871,0.01881-0.13959,0.02881-0.21438,0.02881c-0.07414,0-0.14557-0.01-0.21373-0.02881   c-0.06805-0.02003-0.12839-0.04881-0.18047-0.08534c-0.05207-0.03761-0.09371-0.08197-0.12469-0.13404   c-0.03098-0.05207-0.04653-0.11187-0.04653-0.17949V24.39527z M35.32695,25.56264c0,0.04109,0.01728,0.07534,0.05207,0.10197   c0.03436,0.02772,0.07936,0.04096,0.1335,0.04096c0.0549,0,0.09969-0.01324,0.13404-0.04096   c0.0349-0.02664,0.05207-0.06088,0.05207-0.10197v-1.16736c0-0.03992-0.01718-0.07425-0.05207-0.10189   c-0.03436-0.02672-0.07914-0.03998-0.13404-0.03998c-0.05414,0-0.09914,0.01326-0.1335,0.03998   c-0.03479,0.02764-0.05207,0.06197-0.05207,0.10189V25.56264z" style="fill:#303030;"/><g><path d="M37.72447,30.37343c0,1.35079-1.09504,2.44583-2.44583,2.44583    c-0.6965,0-1.32501-0.29113-1.77046-0.75835c-0.15692-0.16459-1.25452,0.22617-1.36098,0.02291    c-0.17743-0.33877-0.56585-2.17308-0.56585-2.58202c0-0.52242,0.55355-0.90419,1.16112-1.07272    c0.16219-0.04499,0.69035,0.33445,0.78033,0.24167c0.44453-0.45832,1.06693-0.74315,1.75584-0.74315    C36.62943,27.9276,37.72447,29.02263,37.72447,30.37343z" style="fill:#FFC601;"/><path d="M35.22542,27.73496c-0.68305,0-1.30326,0.26385-1.77214,0.6912    c-0.40615-0.3045-0.90841-0.4876-1.45513-0.4876c-1.34446,0-2.43453,1.0902-2.43453,2.43477    c0,1.34457,1.09007,2.43464,2.43453,2.43464c0.5465,0,1.04821-0.18285,1.45404-0.48717    c0.46899,0.4276,1.09007,0.69112,1.77322,0.69112c1.45491,0,2.63847-1.18389,2.63847-2.6388    C37.86389,28.9183,36.68033,27.73496,35.22542,27.73496z M35.22542,32.60423c-0.54629,0-1.04517-0.19982-1.43339-0.52682    l-0.02729-0.03207h-0.93657v-0.40768h1.24759c0.06469-0.10589,0.12317-0.21612,0.17133-0.3319h-1.74865V30.8983h1.87606    c0.02381-0.1082,0.03979-0.21908,0.0486-0.33215h-2.09208v-0.40743h2.09099c-0.00989-0.11339-0.02816-0.22406-0.05316-0.33245    h-1.87041V29.4186h1.73963c-0.04947-0.116-0.10958-0.22602-0.17579-0.33204h-1.23411v-0.40743h0.8097    c0.03088,0.01457,0.06316,0.02979,0.09219,0.04359c0.39604-0.35919,0.91982-0.5801,1.49535-0.5801    c1.2302,0,2.2309,1.00046,2.2309,2.23047C37.45632,31.60352,36.45562,32.60423,35.22542,32.60423z" style="fill:#303030;"/><circle cx="32.0306" cy="30.37343" r="2.03763" style="fill:#F43735;"/></g></g></svg>