<?xml version="1.0" encoding="UTF-8"?><svg xmlns="http://www.w3.org/2000/svg" xmlns:xlink="http://www.w3.org/1999/xlink" version="1.1" id="Layer_1" x="0px" y="0px" viewBox="0 0 100 100" xml:space="preserve"><style type="text/css">.st0{fill:url(#Background_13_);} .st1{fill:url(#path-2_7_);} .st2{filter:url(#Adobe_OpacityMaskFilter);} .st3{fill:#FFFFFF;} .st4{mask:url(#mask-3_1_);fill:#FFFFFF;} .st5{fill:url(#SVGID_1_);} .st6{fill:#1E1E1F;} .st7{fill:url(#Oval_6_);} .st8{stroke:#000000;stroke-width:0.3;} .st9{fill:#2B2A2A;} .st10{fill:#FF9500;} .st11{fill:url(#Background_14_);} .st12{fill:url(#path-2_8_);} .st13{filter:url(#Adobe_OpacityMaskFilter_1_);} .st14{mask:url(#mask-3_2_);} .st15{fill:#FFFFFF;fill-opacity:0.7;} .st16{fill:url(#Background_15_);} .st17{fill:url(#Background_16_);} .st18{fill:url(#Background_17_);} .st19{filter:url(#Adobe_OpacityMaskFilter_2_);} .st20{mask:url(#mask-2_6_);fill-opacity:0.29;} .st21{filter:url(#Adobe_OpacityMaskFilter_3_);} .st22{mask:url(#mask-2_5_);} .st23{fill:url(#path-4_2_);} .st24{filter:url(#Adobe_OpacityMaskFilter_4_);} .st25{mask:url(#mask-2_4_);} .st26{fill:#AAAAAA;} .st27{fill:url(#Background_18_);} .st28{fill:#141416;} .st29{filter:url(#Adobe_OpacityMaskFilter_5_);} .st30{mask:url(#mask-2_3_);fill:url(#Chart_1_);stroke:#FFFFFF;stroke-width:0.75;} .st31{filter:url(#Adobe_OpacityMaskFilter_6_);} .st32{mask:url(#mask-2_2_);} .st33{fill:#01A6F1;} .st34{filter:url(#Adobe_OpacityMaskFilter_7_);} .st35{mask:url(#mask-2_1_);fill:#777778;} .st36{fill:url(#Background_19_);} .st37{fill:#2E2E30;} .st38{fill:#7F7F7F;} .st39{fill:#777777;} .st40{fill:none;} .st41{fill:url(#SVGID_2_);} .st42{fill:url(#Oval_7_);} .st43{filter:url(#Adobe_OpacityMaskFilter_8_);} .st44{mask:url(#mask-3_3_);fill:#FF1414;} .st45{filter:url(#Adobe_OpacityMaskFilter_9_);} .st46{mask:url(#mask-2_8_);} .st47{fill:#1BADF8;} .st48{fill:#63DA38;} .st49{filter:url(#Adobe_OpacityMaskFilter_10_);} .st50{mask:url(#mask-2_7_);} .st51{fill:#B7B7B7;} .st52{filter:url(#Adobe_OpacityMaskFilter_11_);} .st53{mask:url(#mask-2_24_);fill:url(#Red_1_);} .st54{filter:url(#Adobe_OpacityMaskFilter_12_);} .st55{mask:url(#mask-2_23_);fill:url(#Orange_1_);} .st56{filter:url(#Adobe_OpacityMaskFilter_13_);} .st57{mask:url(#mask-2_22_);fill:url(#Yellow_1_);} .st58{filter:url(#Adobe_OpacityMaskFilter_14_);} .st59{mask:url(#mask-2_21_);fill:url(#Green_1_);} .st60{filter:url(#Adobe_OpacityMaskFilter_15_);} .st61{mask:url(#mask-2_20_);fill:url(#Turquoise_1_);} .st62{filter:url(#Adobe_OpacityMaskFilter_16_);} .st63{mask:url(#mask-2_19_);fill:url(#Blue_1_);} .st64{filter:url(#Adobe_OpacityMaskFilter_17_);} .st65{mask:url(#mask-2_18_);fill:url(#Purple_1_);} .st66{filter:url(#Adobe_OpacityMaskFilter_18_);} .st67{mask:url(#mask-2_17_);fill:url(#Pink_1_);} .st68{fill:url(#Background_20_);} .st69{fill:#353535;} .st70{fill:url(#SVGID_3_);}</style><g id="Icon_4_"><g id="Graphics-_x2F_-App-Icons-_x2F_-Twitter-"><g id="Icon_5_"><linearGradient id="Background_13_" gradientUnits="userSpaceOnUse" x1="-542.25" y1="749.2328" x2="-542.25" y2="747.7328" gradientTransform="matrix(60 0 0 -60 32585 44959)"><stop offset="0" stop-color="#55ACEE"/><stop offset="1" stop-color="#3B88C4"/></linearGradient><path id="Background_6_" class="st0" d="M5 26C5 13.8 13.7 5 26 5h48c12.3 0 21 8.7 21 21v49.5C95 86.3 86.3 95 75.5 95h-51C13.7 95 5 86.3 5 75.5V26z" fill="url(#Background_13_)"/><path id="Twitter-Icon" class="st3" d="M76.2 33.4c-2 .9-4.1 1.5-6.3 1.7 2.3-1.4 4-3.5 4.8-6.1-2.1 1.3-4.4 2.2-6.9 2.7-2-2.1-4.8-3.5-8-3.5-6 0-10.9 4.9-10.9 11 0 .9.1 1.7.3 2.5-9.1-.5-17.1-4.8-22.5-11.5-.9 1.6-1.5 3.5-1.5 5.5 0 3.8 1.9 7.2 4.9 9.1-1.8-.1-3.5-.5-4.9-1.4v.1c0 5.3 3.8 9.8 8.8 10.8-1 .4-2 .6-3 .6-.7 0-1.4-.1-2.1-.2 1.4 4.4 5.4 7.5 10.2 7.6-3.7 2.9-8.4 4.7-13.6 4.7-.9 0-1.8-.1-2.6-.2 4.8 3.1 10.6 4.9 16.7 4.9 20.1 0 31.1-16.7 31.1-31.2v-1.4c2.2-1.5 4-3.5 5.5-5.7z" fill="#FFF"/></g></g></g><metadata><rdf:RDF xmlns:rdf="http://www.w3.org/1999/02/22-rdf-syntax-ns#" xmlns:rdfs="http://www.w3.org/2000/01/rdf-schema#" xmlns:dc="http://purl.org/dc/elements/1.1/"><rdf:Description about="https://iconscout.com/legal#licenses" dc:title="apple,twitter" dc:description="apple,twitter" dc:publisher="Iconscout" dc:date="2017-10-27" dc:format="image/svg+xml" dc:language="en"><dc:creator><rdf:Bag><rdf:li>Vicons Design</rdf:li></rdf:Bag></dc:creator></rdf:Description></rdf:RDF></metadata></svg>