<svg id="Layer_1" data-name="Layer 1" xmlns="http://www.w3.org/2000/svg" viewBox="0 0 700 550"><title>people discussing business</title><path d="M431.42062,473.53689c16.25-5.08,30.83-10.27,48.37-20.12,18.09-10.16,98.45-58.51,108.9-142.19a159.61541,159.61541,0,0,0-6.66-68.16c-3.23-9.47-9.93-28.49-26.84-47.3-20.7-23.04-44.32-31.97-58.17-37.02-29.14-10.63-53.58-10.07-65.22-9.69-12.56.41-34.73,1.33-59.93,12.34-16.44,7.18-26.66,15.37-41.72,27.61-23.86,19.41-27,27.49-68.74,67.57-11.46,11-20.88,19.67-35.26,28.21-9.97,5.92-18.03,9.23-32.9,15.27-36.55,14.85-46.95658,17.85676-58.91658,26.21676-23.26,16.27-21.75342,34.01324-22.75342,37.83324a75.12694,75.12694,0,0,0-1.77,29.97c3.05,20.07,13.86,33.19,20.57,41.13a113.09822,113.09822,0,0,0,32.9,26.44,210.24676,210.24676,0,0,0,26.96,11.89Z" fill="#f9e0c0"/><path d="M483.01207,459.35168l-.49023-.87207C506.42223,445.05236,585.2191,394.715,595.69957,310.74279a166.23929,166.23929,0,0,0-6.91406-70.77149c-2.97657-8.73193-9.94922-29.18017-27.84766-49.0957-21.91992-24.39111-46.94531-33.51855-60.38965-38.42187a174.11457,174.11457,0,0,0-67.74707-10.06885c-12.4248.4043-35.55078,1.15674-62.24316,12.81152l-.40039-.916c26.86816-11.73243,51.00879-12.51758,62.61035-12.89453A175.00253,175.00253,0,0,1,500.89,151.51427c13.52637,4.93311,38.7041,14.11621,60.792,38.69336,18.03516,20.06739,25.05371,40.65088,28.05078,49.44092a167.31529,167.31529,0,0,1,6.959,71.21826C586.15367,395.30382,507.016,445.86584,483.01207,459.35168Z" fill="#f9e0c0"/><polygon points="216.587 473.537 229.989 407.574 245.563 407.574 221.596 473.537 216.587 473.537" fill="#935b50"/><polygon points="470.159 407.574 484.611 473.537 477.489 473.537 454.054 407.574 470.159 407.574" fill="#935b50"/><path d="M220.63665,443.76l-3.5076,10.08291a56.78054,56.78054,0,0,1-27.13756,12.87729s-4.99928,2.2956-4.99928,5.91961h49.2863v-18.7969l1.52089-9.645Z" fill="#f9977a"/><path d="M185.79819,470.186h47.94886a1.2248,1.2248,0,0,1,1.2248,1.2248v.00422a1.2248,1.2248,0,0,1-1.2248,1.2248l-49.43169.00014S182.90391,471.15229,185.79819,470.186Z" fill="#d6694b"/><path d="M200.028,470.79984s.4658-2.52876-2.05162-6.02863a5.13881,5.13881,0,0,1,4.34287-1.55434A15.50871,15.50871,0,0,1,203.719,466.284c.60837,1.7054,1.03376,3.75442.30171,5.129Z" fill="#d6694b"/><path d="M211.33413,458.04882s4.798,6.92822,2.30252,12.81757h4.69152s1.90338-9.75537-3.14725-15.18466C215.18092,455.68173,212.03889,455.76343,211.33413,458.04882Z" fill="#d6694b"/><path d="M288.15625,435.17437l-.24915,10.67269s-9.05124,13.57691-23.78985,21.18643c0,0-4.05534,3.71709-2.94483,7.16676l46.91529-15.10281-5.75994-17.89263-1.50778-9.647Z" fill="#f9977a"/><path d="M261.1877,471.61751l45.64219-14.693a1.2248,1.2248,0,0,1,1.5412.79056l.00129.004a1.22479,1.22479,0,0,1-.79056,1.54119l-47.05365,15.1475S258.72876,473.42422,261.1877,471.61751Z" fill="#d6694b"/><path d="M274.921,467.84139s-.33149-2.54984-3.80027-5.10993a5.13885,5.13885,0,0,1,3.65765-2.81035,15.50834,15.50834,0,0,1,2.27231,2.49067c1.10169,1.43692,2.1345,3.257,1.85887,4.78976Z" fill="#d6694b"/><path d="M282.59121,452.45s5.875,4.91393,5.30422,11.28466l4.46583-1.43762s-.36231-9.65859-6.83367-13.279C285.52759,449.018,282.56174,450.05856,282.59121,452.45Z" fill="#d6694b"/><path d="M379.55564,451.28821l-1.26863-7.22578,13.52332.21166.94691,4.33873S383.78631,451.516,379.55564,451.28821Z" fill="#f9977a"/><path d="M354.57484,472.75251l39.11664-7.62128a2,2,0,0,0,1.59523-2.26091l-2.23186-14.821a1.99267,1.99267,0,0,0-2.23978-1.68453c-3.03853.41653-8.90685,1.05342-12.182.30951a1.98355,1.98355,0,0,0-1.63434.34358l-25.17352,18.80342a2,2,0,0,0-.69219,2.25917l1.17029,3.3658A2,2,0,0,0,354.57484,472.75251Z" fill="#376f92"/><path d="M351.84059,470.11554q5.44507-1.24622,10.90752-2.40991l10.91891-2.35571,10.94216-2.24524q5.46732-1.14057,10.95369-2.19043-5.44484,1.24731-10.90744,2.41028l-10.919,2.35534-10.94222,2.24488Q357.32693,469.06531,351.84059,470.11554Z" fill="#10394f"/><path d="M368.52361,458.64594a15.52477,15.52477,0,0,1-1.98838-2.73731,12.60765,12.60765,0,0,1-.72354-1.54175,3.169,3.169,0,0,1-.22276-1.68188,4.22321,4.22321,0,0,0,.46316,1.58325c.23976.49976.4933.99414.77673,1.474C367.3666,456.71979,367.97242,457.659,368.52361,458.64594Z" fill="#10394f"/><path d="M372.1021,456.46515a10.579,10.579,0,0,1-1.73347-3.27954,8.44621,8.44621,0,0,1-.39553-3.68518,15.72107,15.72107,0,0,0,.24857,1.82,13.46425,13.46425,0,0,0,.468,1.76135A23.07248,23.07248,0,0,0,372.1021,456.46515Z" fill="#10394f"/><path d="M375.574,453.70172a12.43036,12.43036,0,0,1-2.06666-3.00732,6.33392,6.33392,0,0,1-.75-3.55457,7.05891,7.05891,0,0,0,.36418,1.75623,11.78025,11.78025,0,0,0,.68952,1.65124C374.31713,451.63422,374.95533,452.65473,375.574,453.70172Z" fill="#10394f"/><rect x="352.18938" y="168.56036" width="126.06938" height="95.67765" rx="5.73232" transform="translate(0.26287 -0.50365) rotate(0.06952)" fill="#e5e1e5"/><rect x="415.00732" y="117.15712" width="0.52149" height="126.06943" transform="translate(234.57133 595.24045) rotate(-89.93032)" fill="#a2aee6"/><path d="M359.36865,177.2161c3.01784,0,3.02284-4.69008,0-4.69008-3.01785,0-3.02284,4.69008,0,4.69008Z" fill="#ffba55"/><path d="M367.18544,177.22559c3.01785,0,3.02285-4.69008,0-4.69008-3.01784,0-3.02284,4.69008,0,4.69008Z" fill="#f73c4f"/><path d="M374.48112,177.23444c3.01784,0,3.02284-4.69008,0-4.69008-3.01784,0-3.02284,4.69008,0,4.69008Z" fill="#4f66d0"/><rect x="383.25024" y="198.87273" width="0.52149" height="48.40189" transform="translate(159.97321 606.31433) rotate(-89.93064)" fill="#a2aee6"/><rect x="383.24072" y="206.75212" width="0.52149" height="48.4014" transform="translate(152.08069 614.17208) rotate(-89.93006)" fill="#a2aee6"/><rect x="383.2312" y="214.63127" width="0.52149" height="48.40189" transform="translate(144.19179 622.03234) rotate(-89.93006)" fill="#a2aee6"/><rect x="383.22144" y="222.71843" width="0.52149" height="48.40189" transform="translate(136.09875 630.10236) rotate(-89.93064)" fill="#a2aee6"/><rect x="383.21167" y="230.59782" width="0.52149" height="48.40189" transform="translate(128.20961 637.96245) rotate(-89.93064)" fill="#a2aee6"/><rect x="358.48577" y="189.49404" width="23.58169" height="23.58169" transform="translate(0.2445 -0.44912) rotate(0.06952)" fill="#a2aee6"/><rect x="388.40102" y="189.53033" width="23.58169" height="23.58169" transform="translate(0.24456 -0.48542) rotate(0.06952)" fill="#a2aee6"/><rect x="419.03008" y="189.5675" width="23.58169" height="23.58169" transform="translate(0.24463 -0.52258) rotate(0.06952)" fill="#a2aee6"/><rect x="448.47112" y="189.60322" width="23.58169" height="23.58169" transform="translate(0.2447 -0.5583) rotate(0.06952)" fill="#a2aee6"/><rect x="417.37701" y="223.10292" width="48.24" height="7.8206" fill="#a2aee6"/><rect x="417.37701" y="234.89255" width="48.24" height="7.8206" fill="#a2aee6"/><rect x="417.37701" y="246.94884" width="48.24" height="7.8206" fill="#a2aee6"/><path d="M449.32481,258.70627a18.59081,18.59081,0,0,0-8.71387.1668c-1.3378.37655-6.23071,1.75367-8.86146,6.12467-.99917,1.66-1.33655,3.71442-2.01182,7.82321-.42175,2.56642-1.53954,4.3503-1.74742,7.50083a26.67427,26.67427,0,0,0,.74373,7.60033c.90531,3.88548.01556,5.99964.54594,6.74994,2.13748,3.02389,9.3551,1.24247,9.21242,4.99348-.08811,2.31616-8.005,9.39357-5.36987,10.04914,6.09016,1.51516,13.24032.009,16.69687-1.52193.47119-.2087,5.83405-1.40948,5.65477-5.52825-.09582-2.20031-.71614-16.16024-.4502-17.4708.9616-4.73685,3.40886-5.15966,5.69167-10.81112a9.00676,9.00676,0,0,0-.90944-8.76333A18.39751,18.39751,0,0,0,449.32481,258.70627Z" fill="#f9977a"/><ellipse cx="430.46213" cy="276.9408" rx="1.20952" ry="0.97265" transform="translate(125.58359 688.08911) rotate(-86.19746)" fill="#0a0709"/><ellipse cx="439.21262" cy="277.5224" rx="1.20952" ry="0.97265" transform="translate(133.17345 697.36336) rotate(-86.19746)" fill="#0a0709"/><path d="M435.26231,275.08823a.60989.60989,0,0,1-.36649-.12216,5.19324,5.19324,0,0,0-5.85737-.41369.61414.61414,0,0,1-.6719-1.02821,6.52205,6.52205,0,0,1,7.2641.459.6136.6136,0,0,1-.36834,1.105Z" fill="#1e1d22"/><path d="M444.3311,275.69072a.60982.60982,0,0,1-.36649-.12217,5.18937,5.18937,0,0,0-5.85829-.41276.61414.61414,0,0,1-.6719-1.02821,6.5163,6.5163,0,0,1,7.265.45811.6136.6136,0,0,1-.36834,1.105Z" fill="#1e1d22"/><path d="M436.03885,275.39156a4.817,4.817,0,0,1-.44637,3.03326,11.13921,11.13921,0,0,1-1.67263,2.61425c-.34521.39657-.82924.67792-.82478,1.09045a1.75127,1.75127,0,0,0,.57426,1.21053,3.77822,3.77822,0,0,0,2.7802.81327,3.52075,3.52075,0,0,1-2.99549-.58352,1.95162,1.95162,0,0,1-.7309-1.4611,1.19161,1.19161,0,0,1,.36846-.79638l.52874-.55136a12.21634,12.21634,0,0,0,1.69438-2.48144A5.48766,5.48766,0,0,0,436.03885,275.39156Z" fill="#dd765e"/><path d="M451.91391,276.85705a2.55252,2.55252,0,0,1,1.93767.94978,4.49869,4.49869,0,0,1,.60174.92294l.20227.50716c.04067.17931.09342.35191.12078.53215a14.61277,14.61277,0,0,0-1.23043-1.69085,4.48358,4.48358,0,0,0-.73292-.70013A3.69222,3.69222,0,0,0,451.91391,276.85705Z" fill="#dd765e"/><path d="M452.36786,281.94211a3.552,3.552,0,0,1-.22443-2.33244,3.93152,3.93152,0,0,1,.45979-1.10526,3.271,3.271,0,0,1,.78765-.87967c-.17868.35284-.37309.67514-.50832,1.025a5.01922,5.01922,0,0,0-.341,1.05274A7.45688,7.45688,0,0,0,452.36786,281.94211Z" fill="#dd765e"/><path d="M449.35964,283.50623a9.47282,9.47282,0,0,1,.89871-3.977c.81-1.71985,1.81959-4.06945,3.55752-4.1148,1.28053-.03342,1.81416-.33544,2.19078.92332.62222,2.08231-.84249,4.23644-1.86223,5.73686-1.46,2.14684-2.606,2.56055-2.729,4.10484-.094,1.17806,3.11306,3.79462,3.78166,3.37654,1.36292-.85224.83784-3.71264,4.83132-10.1714,2.522-4.07841,3.60509-4.803,4.04-7.42467.15435-.93088.7934-4.78474-1.39133-7.19606-1.01339-1.11845-1.65038-.84055-6.2266-3.14747a38.92193,38.92193,0,0,1-3.71186-2.01978c-3.61452-2.29812-3.461-3.34644-5.61431-4.11622-1.94527-.69531-2.11907.14341-5.89016-.33241-3.63585-.45865-3.90559-1.29285-5.625-.92377-2.98531.64067-4.60042,3.67637-5.03416,4.49207a10.10553,10.10553,0,0,0-1.4437,4.63716,9.1167,9.1167,0,0,0,1.47549,4.70425c.44368.51642,2.55938-2.14969,3.68094-3.13105,1.09968-.96139,2.24313-.4618,3.83286-.25645,1.55.20024,1.40047,1.164,3.64611,2.16809.80011.35772,4.185-.89635,5.125.99329,1.00157,2.01338,1.86487,2.30664,1.21428,4.07492-.4065,1.10472-.2933,2.50269-.067,5.29877.16223,2.00657-1.90672,8.84012-1.90672,8.84012C445.45629,287.22239,449.33945,286.57412,449.35964,283.50623Z" fill="#1e1d22"/><path d="M438.1807,288.55236a4.44351,4.44351,0,0,1-1.63839,1.32853,4.65658,4.65658,0,0,1-2.12693.48865,4.94849,4.94849,0,0,1-1.11081-.174,4.08326,4.08326,0,0,1-.99616-.50069,3.87844,3.87844,0,0,1-1.36786-1.62375,10.97127,10.97127,0,0,0,1.73221.95255,4.476,4.476,0,0,0,1.76541.36811A10.14659,10.14659,0,0,0,438.1807,288.55236Z" fill="#dd765e"/><path d="M434.86619,284.17656c-2.0608-.2087-2.379-1.2665-6.25411,3.20005,0,0,4.08891-.985,11.90734,1.463C440.51942,288.83959,437.81682,284.47537,434.86619,284.17656Z" fill="#1e1d22"/><rect x="216.83553" y="391.1163" width="269.42829" height="16.45773" rx="8.22885" fill="#c38f86"/><path d="M349.48763,426.64545l1.02963-6.58811,12.82016,3.83886-.48316,4.4145S353.42583,428.20783,349.48763,426.64545Z" fill="#f9977a"/><path d="M470.07342,358.76031s8.01644,33.31272-8.01643,32.24387l-76.42331.02518,11.44674,49.745a3,3,0,0,1-2.9236,3.67274h-22.043a3,3,0,0,1-2.95353-2.474L366.127,424.9404l-26.62918-8.39659a3,3,0,0,1-1.902-3.92719l15.26784-40.16107a29.47961,29.47961,0,0,1,31.06-18.7949l42.59378,5.09966Z" fill="#376f92"/><path d="M321.11437,447.13543l40.04712-2.35207a2,2,0,0,0,1.8655-1.73454l1.94463-14.71515a1.99793,1.99793,0,0,0-1.94246-2.26157c-3.736-.0655-11.16776-.35192-14.58328-1.57758a2.01447,2.01447,0,0,0-1.66946.123l-27.46278,15.28192a2,2,0,0,0-.9873,2.14668l.711,3.49181A2,2,0,0,0,321.11437,447.13543Z" fill="#376f92"/><path d="M318.75622,444.15729q5.56263-.50884,11.13147-.93359l11.13553-.87854,11.14385-.766q5.57058-.40119,11.148-.71009-5.56256.51013-11.13144.93408l-11.13557.87818-11.14386.76562Q324.33359,443.84833,318.75622,444.15729Z" fill="#10394f"/><path d="M340.65717,433.331a10.5801,10.5801,0,0,1-1.28064-3.48145,8.44652,8.44652,0,0,1,.09947-3.70508,15.72138,15.72138,0,0,0,.00364,1.83692,13.465,13.465,0,0,0,.2289,1.8081A23.072,23.072,0,0,0,340.65717,433.331Z" fill="#10394f"/><path d="M344.46658,431.05536a12.43213,12.43213,0,0,1-1.64714-3.25622,6.33372,6.33372,0,0,1-.26931-3.62281,7.06034,7.06034,0,0,0,.1267,1.78919,11.77818,11.77818,0,0,0,.46317,1.72839C343.49666,428.83856,343.99306,429.93512,344.46658,431.05536Z" fill="#10394f"/><path d="M336.827,433.66962a15.52382,15.52382,0,0,1-.77827-3.2926,12.60155,12.60155,0,0,1-.0727-1.70142,3.16938,3.16938,0,0,1,.44342-1.63769,4.22338,4.22338,0,0,0-.18358,1.6394c.02841.55347.07154,1.10754.14788,1.65955C336.50275,431.44623,336.69927,432.54645,336.827,433.66962Z" fill="#10394f"/><path d="M424.6469,391.01654,396.793,381.80939,382.875,377.179l-6.959-2.31519c-2.33343-.69958-4.59891-1.81616-7.02673-1.72632a10.21214,10.21214,0,0,0-3.52967.63184,11.12216,11.12216,0,0,0-3.10237,1.81372,10.4888,10.4888,0,0,0-2.31154,2.75147,11.36416,11.36416,0,0,0-.78885,1.6228c-.09632.28479-.17206.57715-.2594.86536a4.2585,4.2585,0,0,0-.20048.87939c-.48588,2.39441.2311,4.80029.64823,7.20068l1.36748,7.20545q2.75361,14.40709,5.41434,28.83215-2.86323-14.386-5.63988-28.78894l-1.39607-7.19983c-.22593-1.20239-.48048-2.39465-.6829-3.60535a10.49325,10.49325,0,0,1-.15044-1.847c.00741-.30933-.00137-.62.01985-.92835l.136-.91931a4.4494,4.4494,0,0,1,.20252-.90515c.08843-.29687.16566-.59778.26383-.89111a11.65371,11.65371,0,0,1,.80452-1.6731,10.79821,10.79821,0,0,1,2.36834-2.84143,11.45087,11.45087,0,0,1,3.1905-1.882,10.49747,10.49747,0,0,1,3.64385-.66589,10.39174,10.39174,0,0,1,1.85393.14417c.60868.10717,1.208.29223,1.8003.45605l3.47491,1.17139,6.9498,2.34265,13.89959,4.68518Z" fill="#10394f"/><path d="M396.03464,436.22956q-3.48715.095-6.9743.1322l-6.9743.04028-6.9743-.03967q-3.48715-.0348-6.9743-.13281,3.48714-.09578,6.9743-.13282l6.9743-.03967,6.9743.04028Q392.5475,436.132,396.03464,436.22956Z" fill="#10394f"/><path d="M364.47845,416.347q-3.15365-1.00287-6.28825-2.06006l-6.25787-2.147-6.23148-2.22229q-3.11077-1.12538-6.20071-2.31031,3.154,1.00213,6.28845,2.05957l6.25767,2.14746,6.23128,2.2229Q361.38842,415.16229,364.47845,416.347Z" fill="#10394f"/><path d="M385.63369,391.02936a32.29117,32.29117,0,0,1-1.495-3.09521,31.89382,31.89382,0,0,1-1.17719-3.22962,31.88522,31.88522,0,0,1,1.495,3.09534A32.27993,32.27993,0,0,1,385.63369,391.02936Z" fill="#10394f"/><path d="M475.40872,372.52377l-.21509.25538a34.38229,34.38229,0,0,1-23.00623,12.08129l-.21063.02027a7.9868,7.9868,0,0,0-5.66357,3.2124l-2.2273,3.02319h29.561a10.894,10.894,0,0,0,9.98309-6.533l2.63385-6.02906Z" fill="#f9977a"/><path d="M383.52921,309.42935s-10.136-6.56791-9.67446-8.33783,5.72484.35864,5.72484.35864l.96919-3.71683-5.95248-10.63664a1.19678,1.19678,0,0,1,.534-1.66692h0a1.195,1.195,0,0,1,1.19471.10051c2.476,1.72569,14.32011,11.7712,14.69986,20.83246Z" fill="#f9977a"/><rect x="210.92715" y="207.93137" width="102.82218" height="78.03469" rx="4.67528" transform="translate(0.29982 -0.31812) rotate(0.06952)" fill="#e5e1e5"/><polygon points="313.785 217.693 210.962 217.568 210.963 217.143 313.786 217.268 313.785 217.693" fill="#a2aee6"/><path d="M216.78256,214.991a1.91376,1.91376,0,0,0,0-3.82523,1.91376,1.91376,0,0,0,0,3.82523Z" fill="#ffba55"/><path d="M223.15794,214.99873a1.91376,1.91376,0,0,0,0-3.82523,1.91376,1.91376,0,0,0,0,3.82523Z" fill="#f73c4f"/><path d="M229.10829,215.006a1.91376,1.91376,0,0,0,0-3.82523,1.91376,1.91376,0,0,0,0,3.82523Z" fill="#4f66d0"/><rect x="216.75672" y="223.84378" width="90.27543" height="21.11527" transform="translate(0.2846 -0.31759) rotate(0.06952)" fill="#a2aee6"/><polygon points="256.211 252.629 216.734 252.581 216.735 252.156 256.212 252.204 256.211 252.629" fill="#a2aee6"/><polygon points="256.203 259.055 216.727 259.007 216.728 258.582 256.204 258.63 256.203 259.055" fill="#a2aee6"/><polygon points="256.195 265.481 216.719 265.434 216.72 265.009 256.196 265.057 256.195 265.481" fill="#a2aee6"/><polygon points="256.187 272.078 216.711 272.03 216.712 271.605 256.188 271.653 256.187 272.078" fill="#a2aee6"/><polygon points="256.179 278.504 216.703 278.456 216.704 278.031 256.18 278.079 256.179 278.504" fill="#a2aee6"/><rect x="268.06584" y="250.49851" width="38.93084" height="26.31541" transform="translate(0.32011 -0.34868) rotate(0.06952)" fill="#a2aee6"/><rect x="287.19824" y="249.71453" width="0.65234" height="38.93069" transform="translate(17.99494 556.37659) rotate(-89.93029)" fill="#4f66d0"/><rect x="261.11864" y="263.31391" width="26.31545" height="0.65234" transform="translate(10.22599 537.52147) rotate(-89.91423)" fill="#4f66d0"/><polygon points="274.522 269.37 274.017 268.958 278.352 263.623 280.369 266.274 285.017 259.883 287.604 267.029 289.984 263.193 292.237 264.783 295.043 255.05 298.78 264.275 300.584 262.087 303.798 266.661 303.265 267.036 300.542 263.162 298.586 265.534 295.147 257.043 292.61 265.843 290.174 264.125 287.449 268.515 284.822 261.26 280.38 267.366 278.335 264.678 274.522 269.37" fill="#4f66d0"/><path d="M362.57093,304.05847s10.136-6.56791,9.67446-8.33783-5.72483.35864-5.72483.35864l-.9692-3.71683,5.95248-10.63664a1.19677,1.19677,0,0,0-.534-1.66692h0a1.195,1.195,0,0,0-1.19471.10051c-2.476,1.72569-14.32011,11.7712-14.69986,20.83246Z" fill="#f9977a"/><path d="M284.80947,269.76677c-4.68249-1.31369-10.36437,5.33124-12.18468,7.46-4.2389,4.95737-5.68289,10.23894-6.714,14.174-.93143,3.55455-.72085,4.35061-1.74067,13.67672-1.79858,16.44761-2.95413,18.54926-4.476,20.142-2.94609,3.08321-4.54331,1.41058-11.19,5.71936-4.49439,2.91356-8.67454,5.62332-10.19535,10.69267-1.20112,4.00372-.91969,10.06668,2.48667,12.93066,6.399,5.38015,21.00738-2.89846,27.35337-7.46,16.04575-11.53366,20.742-29.11486,22.13135-34.31608a62.90719,62.90719,0,0,0,1.492-25.11535C290.9698,280.90827,289.81456,271.17094,284.80947,269.76677Z" fill="#160b07"/><path d="M287.48271,292.24624c3.47477,3.64991,18.037.654,12.6631-2.15787,1.49508-.23355,2.7077-.35945,3.839-.654,7.51552-1.95638,15.35916-12.39371,12.96266-20.5277-2.08864-7.08919-11.19918-9.86069-13.41568-10.53511a17.26362,17.26362,0,0,0-16.59262,2.91117,19.67845,19.67845,0,0,0-6.08719,8.59571C279.55339,273.18668,279.56075,283.925,287.48271,292.24624Z" fill="#160b07"/><path d="M307.57216,295.50124l2.91675,2.20029-3.429,12.15147-17.87249-.815-5.02508-12.72941s10.26989-.94951,12.133-7.08172Z" fill="#f9977a"/><path d="M306.79308,290.65465s-4.85984,3.55052-10.43928-.92033c0,0,1.84948,7.82077,11.21836,5.76692A5.57072,5.57072,0,0,1,306.79308,290.65465Z" fill="#dd765e"/><path d="M311.74848,273.34838c-1.825-8.96726-8.2722-15.22559-14.40027-13.97845-4.72979.9626-7.88418,6.11632-8.23964,12.54056a1.748,1.748,0,0,0-1.46917-.21323c-1.331.49463-1.6113,3.04494-.626,5.69622.83187,2.23849,2.299,3.82726,3.53712,3.97189,2.58513,7.03058,8.11355,11.555,13.40651,10.47778C310.08512,290.596,313.57346,282.31559,311.74848,273.34838Z" fill="#f9977a"/><path d="M304.36833,272.62394a5.09426,5.09426,0,0,0-.0176,3.24236,11.77562,11.77562,0,0,0,1.33122,3.00051c.29769.46962.7587.84128.68828,1.27173a1.85192,1.85192,0,0,1-.79372,1.17388,3.99634,3.99634,0,0,1-3.03664.40637,3.72292,3.72292,0,0,0,3.22505-.13185,2.06329,2.06329,0,0,0,.99731-1.41066,1.26041,1.26041,0,0,0-.258-.89166l-.46465-.66076a12.93391,12.93391,0,0,1-1.37534-2.86492A5.80568,5.80568,0,0,1,304.36833,272.62394Z" fill="#dd765e"/><path d="M294.79556,274.84986a.43265.43265,0,0,1-.22973-.70145c.10836-.12772,2.6951-3.11507,6.20416-2.49837a.43273.43273,0,1,1-.14972.85242c-3.02637-.53176-5.37166,2.17907-5.39509,2.20654A.43285.43285,0,0,1,294.79556,274.84986Z" fill="#160b07"/><path d="M306.16006,271.65051a.43287.43287,0,0,1-.05408-.8263,8.35158,8.35158,0,0,1,5.232-.08248.4328.4328,0,0,1-.288.81628,7.554,7.554,0,0,0-4.63764.07611A.43306.43306,0,0,1,306.16006,271.65051Z" fill="#160b07"/><path d="M295.70971,276.74258a7.84891,7.84891,0,0,1,2.86887-1.45518,3.80289,3.80289,0,0,1,1.55647-.02873,5.2042,5.2042,0,0,1,1.51174.58253,3.36472,3.36472,0,0,0-1.42978-.90532,3.28432,3.28432,0,0,0-1.73132-.071,4.53418,4.53418,0,0,0-1.56578.70508A4.82459,4.82459,0,0,0,295.70971,276.74258Z" fill="#160b07"/><circle cx="299.61064" cy="275.95005" r="0.97066" fill="#160b07"/><circle cx="308.84769" cy="274.79568" r="0.97066" fill="#160b07"/><path d="M305.61436,275.79152a7.84891,7.84891,0,0,1,2.86887-1.45518,3.80306,3.80306,0,0,1,1.55647-.02874,5.20451,5.20451,0,0,1,1.51174.58254,3.36463,3.36463,0,0,0-1.42978-.90532,3.2833,3.2833,0,0,0-1.73132-.071,4.534,4.534,0,0,0-1.56578.70508A4.82425,4.82425,0,0,0,305.61436,275.79152Z" fill="#160b07"/><path d="M287.48275,274.79877a4.23331,4.23331,0,0,1,.68666-.86161.618.618,0,0,1,.79533-.10483,2.90423,2.90423,0,0,1,.72633.73229c.23273.28768.42236.6131.6729.91494a4.33827,4.33827,0,0,0-.39241-1.09424,2.23568,2.23568,0,0,0-.7925-.92881.90746.90746,0,0,0-.6899-.12071,1.00886,1.00886,0,0,0-.55734.37034A2.18263,2.18263,0,0,0,287.48275,274.79877Z" fill="#dd765e"/><path d="M289.07038,277.73574a2.1408,2.1408,0,0,0,.44867-1.01734,3.716,3.716,0,0,0,.03946-1.11691,4.72708,4.72708,0,0,0-.24689-1.07987l-.20946-.50959c-.0939-.16048-.17324-.32471-.27827-.4775.09431.7326.2384,1.41814.30437,2.11189a9.16977,9.16977,0,0,1,.06112,1.03778A4.56569,4.56569,0,0,1,289.07038,277.73574Z" fill="#dd765e"/><circle cx="288.57645" cy="280.13438" r="1.92667" fill="#ffcb33"/><path d="M299.73047,285.13794s5.40571,3.38583,8.47319-.36619" fill="#dd2f22"/><path d="M302.14943,260.83817c-1.34756.32313-2.09306,1.35642-3.58408,3.42292-2.88014,3.99183-4.5863,9.4811-6.57965,10.4541a1.22986,1.22986,0,0,1-.72881.148c-.77969-.114-1.09385-1.12382-1.9606-2.54476-.655-1.07383-.94-1.25849-1.3218-1.86009a8.68082,8.68082,0,0,1-.39128-7.83133,9.19724,9.19724,0,0,1,5.05728-4.46257c4.54132-1.94482,8.93048-.246,10.04363.18481,6.68759,2.58843,9.54279,9.20923,9.30644,9.404C311.71271,267.98232,306.64078,259.7612,302.14943,260.83817Z" fill="#160b07"/><path d="M320.42521,351.70114c4.69363,6.6794,6.0826,16.16629,6.27041,24.15417a14.83536,14.83536,0,0,1-14.81506,15.21958H297.02383l7.01631,54.99807H285.41262L271.1573,391.1163h-12.65l-21.65844,53.44746H218.27634c4.61228-32.286,14.5274-60.153,20.2344-74.33386a15.93,15.93,0,0,1,14.78838-9.9854h19.209l3.71451-7.05756Z" fill="#8b9d36"/><path d="M276.22261,353.18694l-2.2287-6.454-12.04335,12.55366a9.6486,9.6486,0,0,1-14.72328-.814c-2.21227-3.04576-3.30245-7.80179-1.09216-15.222,5.85035-19.64044,25.49079-48.89216,38.02724-46.942,0,0,16.29739,18.2475,26.32655,1.39294,0,0,8.63623-4.17882,29.391,26.18726l12.466-23.24395a2,2,0,0,1,2.63258-.85556l8.962,4.32994a2,2,0,0,1,.9739,2.5753l-15.19934,36.18891a9.19393,9.19393,0,0,1-13.95841,3.82077l-14.40284-10.69684-.92863,15.69378Z" fill="#f73c4f"/><path d="M271.1573,391.11627a54.52225,54.52225,0,0,1-1.51956-18.057,24.44059,24.44059,0,0,1,2.43427-8.75232,13.47524,13.47524,0,0,1,6.51046-6.23731,19.26384,19.26384,0,0,1,8.98618-1.27319c3.03085.09094,6.05876.27161,9.08179.50818,3.02111.25989,6.03776.59,9.03228,1.07471a42.98285,42.98285,0,0,1,8.79929,2.23657,43.23874,43.23874,0,0,0-8.82672-2.06445c-2.99165-.46363-6.00556-.773-9.02353-1.01209-3.02014-.21582-6.04459-.376-9.0721-.44629a26.155,26.155,0,0,0-4.51338.122,16.484,16.484,0,0,0-4.32823,1.16321,13.16347,13.16347,0,0,0-6.39771,6.0603,24.19521,24.19521,0,0,0-2.45878,8.64514,47.76626,47.76626,0,0,0-.05544,9.05713A61.73507,61.73507,0,0,0,271.1573,391.11627Z" fill="#5e7c24"/><path d="M258.50731,391.11627a20.44726,20.44726,0,0,1,1.04065-3.236,13.24124,13.24124,0,0,1,1.63814-2.98071c-.46083,1.038-.90265,2.06482-1.31943,3.11279C259.41685,389.04523,259.01231,390.09625,258.50731,391.11627Z" fill="#5e7c24"/><path d="M297.02383,391.07489a34.89641,34.89641,0,0,1-.74458-3.495,34.455,34.455,0,0,1-.4041-3.55066,34.46773,34.46773,0,0,1,.74459,3.49512A34.88324,34.88324,0,0,1,297.02383,391.07489Z" fill="#5e7c24"/><path d="M238.97185,377.02521a8.92324,8.92324,0,0,0,3.09529-.04907,6.17011,6.17011,0,0,0,2.75517-1.26636,7.15139,7.15139,0,0,0,1.88872-2.38452,14.92853,14.92853,0,0,0,.60918-1.42688l.43788-1.50427c-.08086.51623-.1763,1.03418-.27565,1.55273a14.57748,14.57748,0,0,1-.53212,1.49378,7.03681,7.03681,0,0,1-1.91344,2.5393A6.76167,6.76167,0,0,1,238.97185,377.02521Z" fill="#5e7c24"/><path d="M276.56549,378.96234a8.92318,8.92318,0,0,0,3.09528-.04907,6.17,6.17,0,0,0,2.75517-1.26636,7.15131,7.15131,0,0,0,1.88872-2.38452,14.9286,14.9286,0,0,0,.60919-1.42688l.43787-1.50439c-.08086.51636-.1763,1.03418-.27565,1.55285a14.57986,14.57986,0,0,1-.53212,1.49378,7.03693,7.03693,0,0,1-1.91344,2.53931A6.76164,6.76164,0,0,1,276.56549,378.96234Z" fill="#5e7c24"/><path d="M272.88,328.82a28.69681,28.69681,0,0,1,4.91-6.62c6.05-6.36,11.49-10.73,8.36-5.38l-2.45,4.03s6.55-2.63,10.32-4.53a5.24211,5.24211,0,0,1,6.15.95c1.44,1.53,1.42,3.21-2.49,6.24-5.84,4.52-19.46179,12.81647-19.46179,12.81647Z" fill="#f9977a"/><path d="M279.86724,322.74528a8.99045,8.99045,0,0,0,2.013-.75648c.31423-.16436.62831-.328.9279-.52223a8.01429,8.01429,0,0,0,.88916-.62084,4.68128,4.68128,0,0,0-1.06544.24631,7.43446,7.43446,0,0,0-.99363.41662A7.04145,7.04145,0,0,0,279.86724,322.74528Z" fill="#dd765e"/><path d="M288.94606,321.43043a22.32167,22.32167,0,0,0,2.43773-1.01554c.79779-.37247,1.57032-.79509,2.33013-1.24094a22.36927,22.36927,0,0,0,2.19738-1.47275,12.12519,12.12519,0,0,0,1.94784-1.79284c-1.434,1.02269-2.91775,1.91315-4.41982,2.80331C291.94465,319.611,290.42853,320.4743,288.94606,321.43043Z" fill="#dd765e"/><path d="M290.60112,323.44023a21.47648,21.47648,0,0,0,2.71839-.9907,24.36575,24.36575,0,0,0,2.58909-1.30154,16.31136,16.31136,0,0,0,2.39084-1.65743,6.82445,6.82445,0,0,0,1.86809-2.2193,9.88571,9.88571,0,0,1-2.12156,1.89215c-.77951.538-1.57866,1.05113-2.40767,1.51978C293.995,321.64687,292.29517,322.51658,290.60112,323.44023Z" fill="#dd765e"/><path d="M292.58871,324.93969a15.64042,15.64042,0,0,0,2.28739-.7919,20.71611,20.71611,0,0,0,2.1719-1.072,14.38061,14.38061,0,0,0,3.78914-3.00288c-.67248.45156-1.32759.901-2.00429,1.32059-.68325.40859-1.35736.827-2.05168,1.21556Z" fill="#dd765e"/><path d="M249.75676,347.42951q4.79009-4.90027,9.641-9.73926l9.68083-9.69922a2.30953,2.30953,0,0,1,1.59034-.81128,2.15836,2.15836,0,0,1,1.673.64795c.73261.93738,1.33522,1.8689,2.00922,2.80359l3.9429,5.60364c.64565.95153,1.34009,1.82849,1.94565,2.84131a2.10182,2.10182,0,0,1-.0293,1.74084,5.01693,5.01693,0,0,1-1.16621,1.28467l-5.05028,4.63122,4.93451-4.75439a5.00383,5.00383,0,0,0,1.11383-1.24085,1.90868,1.90868,0,0,0,.014-1.58056c-.57361-.93689-1.30478-1.859-1.94943-2.78931l-3.99039-5.56994c-.66763-.912-1.32436-1.89319-2.001-2.74842a1.83358,1.83358,0,0,0-1.42618-.53882,1.97411,1.97411,0,0,0-1.36784.72486L259.559,337.8526Q254.69123,342.6745,249.75676,347.42951Z" fill="#b02336"/><path d="M322.74678,322.77448a17.06095,17.06095,0,0,1,.5176,3.33728,22.5296,22.5296,0,0,1-.1326,3.38476,28.25011,28.25011,0,0,1-1.619,6.57618l-.01126.02978-.02068.02063a9.7736,9.7736,0,0,1-2.71652,1.89746,8.4148,8.4148,0,0,1-6.44684.34668,10.61541,10.61541,0,0,1-1.50257-.65881c-.47833-.26233-.92551-.57959-1.38742-.86536.47747.26282.93759.5553,1.425.79126a10.48664,10.48664,0,0,0,1.5159.57471,8.1924,8.1924,0,0,0,3.18116.36609,9.086,9.086,0,0,0,5.67707-2.68335l-.03173.05a29.609,29.609,0,0,0,1.67147-6.47913A19.6071,19.6071,0,0,0,322.74678,322.77448Z" fill="#b02336"/><path d="M280.9586,336.73249a9.52829,9.52829,0,0,0,2.72042,1.2517,10.11813,10.11813,0,0,0,2.94178.413,11.42308,11.42308,0,0,0,2.94954-.40369,18.44581,18.44581,0,0,0,2.82944-1.0321c-.43663.25268-.87775.50647-1.33133.736a13.98,13.98,0,0,1-1.42441.55139,10.62714,10.62714,0,0,1-3.02244.49341,9.54887,9.54887,0,0,1-3.023-.506A7.62874,7.62874,0,0,1,280.9586,336.73249Z" fill="#b02336"/><path d="M478.97243,350.83072l-9.86212-17.69238,1.09418,25.817c-3.74305,2.0293-19.8617,10.246-35.72748,3.64136-3.091-1.28674-5.72894-2.05137-7.95953-3.8364l-1.77119-17.3821L410.3435,352.07508A9.194,9.194,0,0,1,396.385,348.2543L381.1857,312.06541a2,2,0,0,1,.9739-2.57529l8.962-4.32994a2,2,0,0,1,2.63258.85556l12.46606,23.24394c20.75476-30.36609,30.64058-26.615,30.64058-26.615,10.02917,16.85461,18.4798-3.09975,18.4798-3.09975,16.73692-1.20815,32.74223,26.48748,40.03642,45.8919,1.24109,3.30164,3.179,6.34094,1.77313,9.57581L485.117,382.21675l-14.50574-5.70869,8.54268-22.14914A4.00232,4.00232,0,0,0,478.97243,350.83072Z" fill="#ffba55"/><path d="M423.35336,328.14533a49.11421,49.11421,0,0,1,1.09653,6.57373,46.67388,46.67388,0,0,1,.29641,6.65918,33.578,33.578,0,0,1-1.29021-6.55347A33.049,33.049,0,0,1,423.35336,328.14533Z" fill="#e6952a"/><path d="M406.22021,329.25971a4.02512,4.02512,0,0,1,1.958,1.46875,3.79468,3.79468,0,0,1,.57289,1.11462,1.75334,1.75334,0,0,1-.01406,1.29529,7.4944,7.4944,0,0,0-.68184-.94226c-.23607-.28357-.44968-.5802-.68183-.87512A7.94239,7.94239,0,0,1,406.22021,329.25971Z" fill="#e6952a"/><path d="M469.11031,333.13837a6.48694,6.48694,0,0,1-1.86364-1.91553,6.41356,6.41356,0,0,1-1.02966-2.46606,6.41355,6.41355,0,0,1,1.86364,1.9154A6.48615,6.48615,0,0,1,469.11031,333.13837Z" fill="#e6952a"/><path d="M445.577,295.15677c-2.88,2.15991-9.1275,2.16064-9.1275,2.16064l-.0003.00061c1.22686.4004,2.0932,1.02991,2.04309,2.34754a6.28038,6.28038,0,0,1-1.3722,2.62768C441.24037,300.5701,445.577,295.15677,445.577,295.15677Z" fill="#dd765e"/><path d="M239.604,445.06391H215.18115a.5.5,0,1,1,0-1H239.604a.5.5,0,0,1,0,1Z" fill="#5e7c24"/><path d="M306.91357,446.57318H282.49072a.5.5,0,0,1,0-1h24.42285a.5.5,0,1,1,0,1Z" fill="#5e7c24"/><path d="M494.92311,174.51964l6.726,35.42241,13.72487,5.10879,13.72645-5.10879,6.726-35.42241Z" fill="#ffba55"/><path d="M479.23169,160.10679a6.64375,6.64375,0,0,1,7.1942-1.30814,5.32019,5.32019,0,0,1,2.76138,3.19762c.054.19319.68561,2.59638-.79936,4.14206-.699.7276-2.006,1.40987-2.90666.94464a1.44722,1.44722,0,0,1-.79936-1.16266c.00395-.40786.29432-.49184.43586-1.01738.15967-.59277.041-1.417-.36331-1.59871-.43014-.19339-1.18238.34083-1.526.94464-.64028,1.12521-.07432,2.86684.89614,3.85149,1.5725,1.59536,4.15744,1.153,5.23219.96909a10.35066,10.35066,0,0,0,6.00749-3.682,9.53686,9.53686,0,0,0,2.32532-4.2633,10.85881,10.85881,0,0,0-.19377-4.65085c-.61366-2.94431-1.37557-3.38055-2.71289-7.17015-1.01383-2.87276-1.51729-4.35082-1.35663-6.39485a8.21526,8.21526,0,0,1,1.74419-4.84463,7.92672,7.92672,0,0,1,5.23218-2.71288,8.549,8.549,0,0,1,6.78241,2.71288l2.42231-2.7462s-2.90666-1.08105,1.308-8.348l-.79916-.6178a33.44008,33.44008,0,1,1,66.88017,0l3.38765,90.77648h1.166a2.61609,2.61609,0,1,1,0,5.23218h-.97066l.40726,10.91658h.5634a2.61609,2.61609,0,1,1,0,5.23218h-.36824l8.48756,227.43915h.50426a3.29431,3.29431,0,1,1,0,6.58862H553.8389a3.29431,3.29431,0,1,1,0-6.58862h.79522l8.48756-227.43915h-.36863a2.61609,2.61609,0,1,1,0-5.23218h.56379l.40726-10.91658h-.971a2.61609,2.61609,0,1,1,0-5.23218h1.16641l3.38765-90.77648a23.75083,23.75083,0,1,0-47.50165,0l-.79956.6178c4.215,7.26694,1.30815,8.348,1.30815,8.348l2.42231,2.7462a8.549,8.549,0,0,1,6.78241-2.71288,7.92672,7.92672,0,0,1,5.23218,2.71288,8.21533,8.21533,0,0,1,1.74419,4.84463c.16066,2.044-.3428,3.52209-1.35664,6.39485-1.33732,3.7896-2.09922,4.22584-2.71288,7.17015a10.8589,10.8589,0,0,0-.19378,4.65085,9.537,9.537,0,0,0,2.32533,4.2633,10.35066,10.35066,0,0,0,6.00749,3.682c1.07475.18392,3.65969.62627,5.23219-.96909.97046-.98465,1.53642-2.72628.89614-3.85149-.34359-.60381-1.09584-1.138-1.526-.94464-.40431.18175-.523,1.00594-.36331,1.59871.14154.52554.43191.60952.43585,1.01738a1.44721,1.44721,0,0,1-.79935,1.16266c-.90068.46523-2.20764-.217-2.90666-.94464-1.485-1.54568-.85337-3.94887-.79936-4.14206a5.32019,5.32019,0,0,1,2.76138-3.19762,6.64375,6.64375,0,0,1,7.1942,1.30814,7.10931,7.10931,0,0,1,2.18024,4.7236c.14548,4.09258-3.73617,6.8713-4.79633,7.63025-3.73637,2.67483-7.86385,2.78917-10.90042,2.83411-8.12839.12025-15.34191.16756-22.21243.14943-6.87072.01813-14.08424-.02918-22.21264-.14943-3.03656-.04494-7.164-.15928-10.90041-2.83411-1.06016-.75895-4.94182-3.53767-4.79633-7.63025A7.10931,7.10931,0,0,1,479.23169,160.10679Z" fill="#6b3832"/><path d="M494.92311,174.51964l6.726,35.42241,13.72487,5.10879,13.72645-5.10879,6.726-35.42241Zm32.76118,34.227-11.50284,4.28005v-36.8922h17.69583Zm-30.812-32.61215h17.69425v36.8922l-11.50126-4.28005Z" fill="#6b3832"/><circle cx="515.38825" cy="216.32834" r="3.41582" fill="#6b3832"/><path d="M171.10958,174.51964l6.726,35.42241,13.72645,5.10879,13.72487-5.10879,6.726-35.42241Z" fill="#ffba55"/><path d="M227.70437,160.10679a6.64375,6.64375,0,0,0-7.1942-1.30814,5.32015,5.32015,0,0,0-2.76137,3.19762c-.054.19319-.68562,2.59638.79935,4.14206.699.7276,2.006,1.40987,2.90666.94464a1.44722,1.44722,0,0,0,.79936-1.16266c-.00395-.40786-.29432-.49184-.43585-1.01738-.15968-.59277-.041-1.417.3633-1.59871.43014-.19339,1.18238.34083,1.526.94464.64028,1.12521.07432,2.86684-.89614,3.85149-1.5725,1.59536-4.15744,1.153-5.23219.96909a10.35066,10.35066,0,0,1-6.00749-3.682,9.53686,9.53686,0,0,1-2.32532-4.2633,10.859,10.859,0,0,1,.19377-4.65085c.61367-2.94431,1.37557-3.38055,2.71289-7.17015,1.01383-2.87276,1.51729-4.35082,1.35663-6.39485a8.21526,8.21526,0,0,0-1.74419-4.84463,7.92672,7.92672,0,0,0-5.23218-2.71288,8.549,8.549,0,0,0-6.7824,2.71288l-2.42232-2.7462s2.90666-1.08105-1.308-8.348l.79916-.6178a33.44009,33.44009,0,1,0-66.88017,0L126.552,217.12818h-1.166a2.61609,2.61609,0,1,0,0,5.23218h.97066l-.40726,10.91658h-.5634a2.61609,2.61609,0,1,0,0,5.23218h.36824L117.2667,465.94827h-.50426a3.29431,3.29431,0,1,0,0,6.58862h36.33472a3.29431,3.29431,0,1,0,0-6.58862H152.302l-8.48757-227.43915h.36863a2.61609,2.61609,0,1,0,0-5.23218h-.56379l-.40726-10.91658h.971a2.61609,2.61609,0,1,0,0-5.23218H143.0166L139.629,126.3517a23.75083,23.75083,0,1,1,47.50165,0l.79956.6178c-4.215,7.26694-1.30815,8.348-1.30815,8.348l-2.42231,2.7462a8.549,8.549,0,0,0-6.7824-2.71288,7.92672,7.92672,0,0,0-5.23219,2.71288,8.21533,8.21533,0,0,0-1.74419,4.84463c-.16066,2.044.34281,3.52209,1.35664,6.39485,1.33732,3.7896,2.09922,4.22584,2.71288,7.17015a10.8589,10.8589,0,0,1,.19378,4.65085,9.53686,9.53686,0,0,1-2.32533,4.2633,10.35063,10.35063,0,0,1-6.00749,3.682c-1.07475.18392-3.65969.62627-5.23219-.96909-.97046-.98465-1.53641-2.72628-.89614-3.85149.34359-.60381,1.09584-1.138,1.526-.94464.40431.18175.523,1.00594.36331,1.59871-.14154.52554-.43191.60952-.43585,1.01738a1.44721,1.44721,0,0,0,.79935,1.16266c.90068.46523,2.20764-.217,2.90666-.94464,1.485-1.54568.85337-3.94887.79936-4.14206a5.32019,5.32019,0,0,0-2.76138-3.19762,6.64375,6.64375,0,0,0-7.1942,1.30814,7.10931,7.10931,0,0,0-2.18024,4.7236c-.14548,4.09258,3.73617,6.8713,4.79633,7.63025,3.73637,2.67483,7.86385,2.78917,10.90042,2.83411,8.12839.12025,15.34191.16756,22.21243.14943,6.87072.01813,14.08424-.02918,22.21264-.14943,3.03656-.04494,7.164-.15928,10.90041-2.83411,1.06016-.75895,4.94182-3.53767,4.79634-7.63025A7.10935,7.10935,0,0,0,227.70437,160.10679Z" fill="#6b3832"/><path d="M171.10958,174.51964l6.726,35.42241,13.72645,5.10879,13.72487-5.10879,6.726-35.42241Zm1.9492,1.61488h17.69583v36.8922l-11.50284-4.28005Zm30.812,32.61215-11.50126,4.28005v-36.8922h17.69425Z" fill="#6b3832"/><circle cx="191.54781" cy="216.32834" r="3.41582" fill="#6b3832"/><path d="M553.80894,473.17729l.7832-.4707c-.2207-.36621-22.041-36.73047-25.4375-45.78906l-.85547.32031C531.72593,436.37554,552.90952,471.67827,553.80894,473.17729Z" fill="#8b9d36"/><path d="M536.1221,407.84919a39.22492,39.22492,0,0,0-2.10917,7.06939,66.09048,66.09048,0,0,0-1.078,7.16754,64.77417,64.77417,0,0,0-.29692,7.24176,38.69376,38.69376,0,0,0,.74452,7.34079,38.72912,38.72912,0,0,0,2.11407-7.069,64.87845,64.87845,0,0,0,1.07308-7.168,66.08876,66.08876,0,0,0,.292-7.24221A39.18943,39.18943,0,0,0,536.1221,407.84919Z" fill="#8b9d36"/><path d="M544.17536,418.8604a37.41374,37.41374,0,0,0-2.73688,6.66543,62.83586,62.83586,0,0,0-1.71952,6.86081,61.87359,61.87359,0,0,0-.94914,7.00876,37.00357,37.00357,0,0,0,.07846,7.206,36.96936,36.96936,0,0,0,2.74178-6.66448,61.87561,61.87561,0,0,0,1.71462-6.86181,62.93606,62.93606,0,0,0,.94424-7.00966A37.44758,37.44758,0,0,0,544.17536,418.8604Z" fill="#8b9d36"/><path d="M548.61259,431.6794a31.74572,31.74572,0,0,0-2.32984,6.19548,52.73757,52.73757,0,0,0-1.30358,6.34194,51.85269,51.85269,0,0,0-.5274,6.45272,31.34443,31.34443,0,0,0,.50823,6.60056,31.34589,31.34589,0,0,0,2.33475-6.19481,51.76675,51.76675,0,0,0,1.29867-6.3426,52.73691,52.73691,0,0,0,.5225-6.45345A31.71454,31.71454,0,0,0,548.61259,431.6794Z" fill="#8b9d36"/><path d="M554.20048,444.47472a24.30269,24.30269,0,0,0-2.36239,5.27242,39.603,39.603,0,0,0-1.341,5.44873,38.8702,38.8702,0,0,0-.56842,5.58215,24.021,24.021,0,0,0,.46231,5.76014,24.00253,24.00253,0,0,0,2.3673-5.27158,38.93691,38.93691,0,0,0,1.33656-5.44957,39.66925,39.66925,0,0,0,.56352-5.583A24.30234,24.30234,0,0,0,554.20048,444.47472Z" fill="#8b9d36"/><path d="M559.13078,452.47226a21.8801,21.8801,0,0,0-2.4939,4.62938,37.72662,37.72662,0,0,0-1.56795,4.80235,43.1093,43.1093,0,0,0-.94691,4.92485c-.10254.8359-.19661,1.66713-.259,2.51441a18.71227,18.71227,0,0,1-.27552,2.5746,5.05372,5.05372,0,0,0,.60631-.38273l.49219-.49319a9.10128,9.10128,0,0,0,.86087-1.07676,17.24662,17.24662,0,0,0,1.32364-2.30366,25.652,25.652,0,0,0,1.7369-4.85752,28.75142,28.75142,0,0,0,.81763-5.05781A19.04022,19.04022,0,0,0,559.13078,452.47226Z" fill="#8b9d36"/><path d="M531.33357,432.73092a31.4531,31.4531,0,0,0-5.5549-4.8169,51.47733,51.47733,0,0,0-6.13981-3.66123,50.575,50.575,0,0,0-6.58295-2.78653,31.09365,31.09365,0,0,0-7.17322-1.61982,31.08484,31.08484,0,0,0,5.55177,4.82241,50.57652,50.57652,0,0,0,6.14294,3.65571,51.45484,51.45484,0,0,0,6.58562,2.781A31.45062,31.45062,0,0,0,531.33357,432.73092Z" fill="#8b9d36"/><path d="M536.78994,442.92244a38.7469,38.7469,0,0,0-6.85134-4.4851,64.50961,64.50961,0,0,0-7.307-3.27247,63.35634,63.35634,0,0,0-7.65158-2.35482,38.30562,38.30562,0,0,0-8.11122-1.13065,38.31225,38.31225,0,0,0,6.84866,4.4909,63.36815,63.36815,0,0,0,7.30919,3.26668,64.49544,64.49544,0,0,0,7.65381,2.349A38.74619,38.74619,0,0,0,536.78994,442.92244Z" fill="#8b9d36"/><path d="M543.21284,454.25068a33.042,33.042,0,0,0-6.17592-4.33023,54.30053,54.30053,0,0,0-6.64715-3.12351,53.33665,53.33665,0,0,0-7.00336-2.21026,32.65994,32.65994,0,0,0-7.4786-.992,32.67105,32.67105,0,0,0,6.17369,4.336,53.34511,53.34511,0,0,0,6.64938,3.11778,54.30709,54.30709,0,0,0,7.00559,2.20451A33.04026,33.04026,0,0,0,543.21284,454.25068Z" fill="#8b9d36"/><path d="M548.28893,462.97005a24.77129,24.77129,0,0,0-5.42427-3.57284,39.56079,39.56079,0,0,0-5.81125-2.33659,38.85082,38.85082,0,0,0-6.10459-1.40109,24.50751,24.50751,0,0,0-6.49512-.15309,24.506,24.506,0,0,0,5.42249,3.5787,38.84859,38.84859,0,0,0,5.81347,2.33074,39.541,39.541,0,0,0,6.10592,1.39513A24.78368,24.78368,0,0,0,548.28893,462.97005Z" fill="#8b9d36"/><path d="M552.29594,470.79383a32.58027,32.58027,0,0,0-5.96237-4.53029,53.46986,53.46986,0,0,0-6.47685-3.34152,52.54041,52.54041,0,0,0-6.86649-2.442,32.2142,32.2142,0,0,0-7.38588-1.24183,32.20307,32.20307,0,0,0,5.9597,4.536,52.52154,52.52154,0,0,0,6.47953,3.33595,53.46232,53.46232,0,0,0,6.86872,2.43617A32.57931,32.57931,0,0,0,552.29594,470.79383Z" fill="#8b9d36"/><path d="M529.56055,428.3925a22.93158,22.93158,0,0,0-.17789-7.3224,34.50229,34.50229,0,0,0-1.86575-6.66142,33.93615,33.93615,0,0,0-3.14435-6.16076,22.7026,22.7026,0,0,0-4.84917-5.49349,22.68914,22.68914,0,0,0,.16941,7.32552,33.9671,33.9671,0,0,0,1.87378,6.6583,34.5064,34.5064,0,0,0,3.15282,6.15758A22.93566,22.93566,0,0,0,529.56055,428.3925Z" fill="#8b9d36"/><path d="M556.16245,473.66948l.91211-.01562c-.04-2.49414-1.12305-61.31446-12.88965-79.94434l-.77148.48828C555.04331,412.61186,556.15269,473.06108,556.16245,473.66948Z" fill="#50661a"/><path d="M547.5796,402.11206a41.84152,41.84152,0,0,1-.27373-8.23382,74.0244,74.0244,0,0,1,.88985-7.98722c.42621-2.634,1.00622-5.24171,1.68832-7.82779.68121-2.60313,1.54164-5.10769,2.46091-7.77541a11.40859,11.40859,0,0,1,.58893,2.04709,18.24372,18.24372,0,0,1,.32188,2.08013,35.2518,35.2518,0,0,1,.18546,4.12928,53.01748,53.01748,0,0,1-.74318,8.09278,58.8166,58.8166,0,0,1-1.87243,7.87972A37.04914,37.04914,0,0,1,547.5796,402.11206Z" fill="#50661a"/><path d="M533.11681,364.86439a29.58372,29.58372,0,0,1,5.15054,6.61773,46.5087,46.5087,0,0,1,3.452,7.2534,45.7021,45.7021,0,0,1,2.16668,7.73456,29.26521,29.26521,0,0,1,.45206,8.37626,29.26406,29.26406,0,0,1-5.15857-6.61472,45.66041,45.66041,0,0,1-3.44394-7.25647,46.50818,46.50818,0,0,1-2.15866-7.73757A29.56906,29.56906,0,0,1,533.11681,364.86439Z" fill="#50661a"/><path d="M523.42026,379.85536a68.1494,68.1494,0,0,1,6.78268,6.24971c2.09624,2.173,4.09663,4.39465,6.05377,6.62831l5.81481,6.67318c.97545,1.09276,1.96115,2.16952,3.00258,3.18944a13.71052,13.71052,0,0,0,3.54827,2.68043,6.159,6.159,0,0,1-2.42837-.06158,11.36936,11.36936,0,0,1-2.33966-.73588,22.595,22.595,0,0,1-4.16706-2.38931,40.89812,40.89812,0,0,1-6.86426-6.35029,54.18736,54.18736,0,0,1-5.45459-7.45163A38.7819,38.7819,0,0,1,523.42026,379.85536Z" fill="#50661a"/><path d="M523.42026,394.84634a56.13444,56.13444,0,0,1,8.43176,5.18587,95.52346,95.52346,0,0,1,7.56509,6.1485,93.90993,93.90993,0,0,1,6.9093,6.877,55.503,55.503,0,0,1,6.03415,7.8488,55.48172,55.48172,0,0,1-8.43622-5.1813,93.83547,93.83547,0,0,1-7.56108-6.15308,95.51515,95.51515,0,0,1-6.90484-6.88159A56.12814,56.12814,0,0,1,523.42026,394.84634Z" fill="#50661a"/><path d="M524.40641,406.60836a55.50774,55.50774,0,0,1,8.5187,4.92641A94.40322,94.40322,0,0,1,540.603,417.446a92.77833,92.77833,0,0,1,7.04081,6.65657,54.88358,54.88358,0,0,1,6.19108,7.65074,54.85685,54.85685,0,0,1-8.52316-4.92166,92.71835,92.71835,0,0,1-7.67342-5.916,94.39749,94.39749,0,0,1-7.0368-6.66125A55.48,55.48,0,0,1,524.40641,406.60836Z" fill="#50661a"/><path d="M525.06355,419.18089a51.60468,51.60468,0,0,1,8.533,4.13948,87.39193,87.39193,0,0,1,7.75813,5.17734,85.93538,85.93538,0,0,1,7.17143,5.96293,50.9947,50.9947,0,0,1,6.389,7.01077,51.04013,51.04013,0,0,1-8.53653-4.13452,85.93206,85.93206,0,0,1-7.75457-5.18235,87.45092,87.45092,0,0,1-7.16742-5.9679A51.6049,51.6049,0,0,1,525.06355,419.18089Z" fill="#50661a"/><path d="M524.40641,428.30211a57.41348,57.41348,0,0,1,8.928,4.53308A97.79688,97.79688,0,0,1,541.479,438.4a96.07991,96.07991,0,0,1,7.55217,6.34561,56.74,56.74,0,0,1,6.76083,7.387,56.74368,56.74368,0,0,1-8.93152-4.52812,96.07878,96.07878,0,0,1-8.14109-5.56972,97.78428,97.78428,0,0,1-7.54815-6.35051A57.41064,57.41064,0,0,1,524.40641,428.30211Z" fill="#50661a"/><path d="M522.10554,436.84811a74.84536,74.84536,0,0,1,9.33232,5.17941c2.96291,1.89673,5.82952,3.90185,8.62435,5.99464,2.80286,2.08058,5.52815,4.2497,8.20529,6.49106,2.70478,2.22212,5.25976,4.53653,8.05817,6.8286a22.56417,22.56417,0,0,1-5.22544-1.52493,51.10153,51.10153,0,0,1-4.85229-2.336,79.6416,79.6416,0,0,1-8.91726-5.80277,91.94522,91.94522,0,0,1-8.101-6.83618A58.23716,58.23716,0,0,1,522.10554,436.84811Z" fill="#50661a"/><path d="M519.3116,445.72285a76.97429,76.97429,0,0,1,10.1339,4.81578c3.23619,1.80284,6.377,3.73858,9.44555,5.77619q4.60352,3.0555,8.985,6.42575,2.19009,1.68987,4.33826,3.44049a38.65913,38.65913,0,0,0,4.40379,3.37206,8.5063,8.5063,0,0,1-2.847-.48895c-.9175-.27173-1.80824-.6023-2.68918-.94614-1.757-.69748-3.45465-1.49527-5.11978-2.34066a97.1604,97.1604,0,0,1-9.59891-5.66267,109.73029,109.73029,0,0,1-8.93465-6.62146A67.91279,67.91279,0,0,1,519.3116,445.72285Z" fill="#50661a"/><path d="M550.41233,412.553a45.424,45.424,0,0,1,1.30982-8.78875,76.32549,76.32549,0,0,1,2.526-8.34383,75.12677,75.12677,0,0,1,3.44707-8.00712,44.93532,44.93532,0,0,1,4.67485-7.558,44.93888,44.93888,0,0,1-1.30357,8.79087,75.12806,75.12806,0,0,1-2.53225,8.34171,76.43187,76.43187,0,0,1-3.45286,8.005A45.42374,45.42374,0,0,1,550.41233,412.553Z" fill="#50661a"/><path d="M552.36056,422.81537A46.41405,46.41405,0,0,1,554.883,414.191a78.16227,78.16227,0,0,1,3.66819-8.02055,76.86111,76.86111,0,0,1,4.53576-7.56358,45.92018,45.92018,0,0,1,5.69265-6.954,45.92112,45.92112,0,0,1-2.51664,8.62731,76.95181,76.95181,0,0,1-3.674,8.01765,78.25562,78.25562,0,0,1-4.54111,7.56069A46.47405,46.47405,0,0,1,552.36056,422.81537Z" fill="#50661a"/><path d="M553.83488,432.73945a50.84022,50.84022,0,0,1,3.69227-8.65829,86.153,86.153,0,0,1,4.76535-7.93306,84.64289,84.64289,0,0,1,5.57808-7.38409,50.272,50.272,0,0,1,6.66142-6.65195,50.26773,50.26773,0,0,1-3.68737,8.66181,84.54329,84.54329,0,0,1-4.7707,7.92955,86.06283,86.06283,0,0,1-5.583,7.38069A50.84477,50.84477,0,0,1,553.83488,432.73945Z" fill="#50661a"/><path d="M554.9151,443.68836a65.558,65.558,0,0,1,5.28607-9.2927q2.94708-4.39814,6.28915-8.47283,3.33095-4.08384,7.048-7.85236a64.54027,64.54027,0,0,1,8.06039-7.02476,64.53539,64.53539,0,0,1-5.28116,9.29659q-2.94708,4.39788-6.29362,8.46893-3.339,4.0779-7.05285,7.84847A65.479,65.479,0,0,1,554.9151,443.68836Z" fill="#50661a"/><path d="M555.792,455.0419a66.20645,66.20645,0,0,1,6.25974-8.73492q3.4065-4.08927,7.17277-7.81564,3.75557-3.73677,7.8629-7.11994a65.20525,65.20525,0,0,1,8.7844-6.19186,65.208,65.208,0,0,1-6.25528,8.73927q-3.4065,4.08885-7.17678,7.81129-3.76293,3.73-7.86736,7.11554A66.18077,66.18077,0,0,1,555.792,455.0419Z" fill="#50661a"/><path d="M556.32567,462.32184a57.6988,57.6988,0,0,1,6.801-7.38432,98.30594,98.30594,0,0,1,7.582-6.351,96.56184,96.56184,0,0,1,8.17318-5.569,57.037,57.037,0,0,1,8.96229-4.5259,57.05229,57.05229,0,0,1-6.79739,7.38922,96.642,96.642,0,0,1-7.5856,6.34611,98.37247,98.37247,0,0,1-8.1772,5.56409A57.71026,57.71026,0,0,1,556.32567,462.32184Z" fill="#50661a"/><path d="M556.61812,468.40269a61.07837,61.07837,0,0,1,7.94538-6.60625q4.16751-2.96264,8.58869-5.48178,4.41426-2.53155,9.07552-4.63089a60.36463,60.36463,0,0,1,9.72508-3.49577,60.37026,60.37026,0,0,1-7.9427,6.61154q-4.16751,2.96231-8.59136,5.47644-4.419,2.52344-9.07865,4.62558A61.08853,61.08853,0,0,1,556.61812,468.40269Z" fill="#50661a"/><path d="M556.3912,472.347a65.96605,65.96605,0,0,1,9.29576-5.35428c3.18938-1.53974,6.44118-2.91163,9.746-4.13975q4.95661-1.84386,10.08664-3.22059a65.0028,65.0028,0,0,1,10.54182-1.99437,65.00462,65.00462,0,0,1-9.29352,5.36007q-4.78475,2.30911-9.74827,4.134c-3.30663,1.22333-6.66677,2.303-10.08887,3.2148A65.9542,65.9542,0,0,1,556.3912,472.347Z" fill="#50661a"/><path d="M557.98862,472.03276c.89942-1.499,22.083-36.80078,25.50977-45.93945l-.85547-.32031c-3.39648,9.05957-25.2168,45.42285-25.4375,45.78906Z" fill="#5e7c24"/><path d="M575.72154,406.84919a39.22412,39.22412,0,0,1,2.10917,7.06939,66.09052,66.09052,0,0,1,1.078,7.16754,64.77417,64.77417,0,0,1,.29691,7.24176,38.69456,38.69456,0,0,1-.74451,7.34079,38.72833,38.72833,0,0,1-2.11407-7.069,64.88085,64.88085,0,0,1-1.07309-7.168,66.08876,66.08876,0,0,1-.292-7.24221A39.18943,39.18943,0,0,1,575.72154,406.84919Z" fill="#5e7c24"/><path d="M567.66828,417.8604a37.41374,37.41374,0,0,1,2.73688,6.66543,62.83356,62.83356,0,0,1,1.71952,6.86081,61.87587,61.87587,0,0,1,.94915,7.00876,37.00437,37.00437,0,0,1-.07847,7.206,36.96936,36.96936,0,0,1-2.74178-6.66448,61.87561,61.87561,0,0,1-1.71462-6.86181,62.93841,62.93841,0,0,1-.94424-7.00966A37.44919,37.44919,0,0,1,567.66828,417.8604Z" fill="#5e7c24"/><path d="M563.23105,430.6794a31.74577,31.74577,0,0,1,2.32985,6.19548,52.73754,52.73754,0,0,1,1.30357,6.34194,51.85078,51.85078,0,0,1,.5274,6.45272,31.34443,31.34443,0,0,1-.50823,6.60056,31.34652,31.34652,0,0,1-2.33475-6.19481,51.76675,51.76675,0,0,1-1.29867-6.3426,52.73889,52.73889,0,0,1-.5225-6.45345A31.71454,31.71454,0,0,1,563.23105,430.6794Z" fill="#5e7c24"/><path d="M557.64316,443.47472a24.30321,24.30321,0,0,1,2.3624,5.27242,39.60592,39.60592,0,0,1,1.341,5.44873,38.87019,38.87019,0,0,1,.56841,5.58215,24.02047,24.02047,0,0,1-.46231,5.76014,24.00248,24.00248,0,0,1-2.36729-5.27158,38.93555,38.93555,0,0,1-1.33657-5.44957,39.66924,39.66924,0,0,1-.56351-5.583A24.30285,24.30285,0,0,1,557.64316,443.47472Z" fill="#5e7c24"/><path d="M552.71286,451.47226a21.88015,21.88015,0,0,1,2.49391,4.62938,37.72656,37.72656,0,0,1,1.56794,4.80235,43.1115,43.1115,0,0,1,.94692,4.92485c.10254.8359.1966,1.66713.259,2.51441a18.71223,18.71223,0,0,0,.27551,2.5746,5.05372,5.05372,0,0,1-.60631-.38273l-.49218-.49319a9.10138,9.10138,0,0,1-.86088-1.07676,17.24654,17.24654,0,0,1-1.32363-2.30366,25.65273,25.65273,0,0,1-1.73691-4.85752,28.75328,28.75328,0,0,1-.81763-5.05781A19.0406,19.0406,0,0,1,552.71286,451.47226Z" fill="#5e7c24"/><path d="M580.51008,431.73092a31.453,31.453,0,0,1,5.55489-4.8169,51.47733,51.47733,0,0,1,6.13981-3.66123,50.57511,50.57511,0,0,1,6.583-2.78653,31.09368,31.09368,0,0,1,7.17321-1.61982,31.08415,31.08415,0,0,1-5.55177,4.82241,50.5764,50.5764,0,0,1-6.14293,3.65571,51.455,51.455,0,0,1-6.58563,2.781A31.45066,31.45066,0,0,1,580.51008,431.73092Z" fill="#5e7c24"/><path d="M575.05371,441.92244a38.74647,38.74647,0,0,1,6.85133-4.4851,64.50975,64.50975,0,0,1,7.307-3.27247,63.35579,63.35579,0,0,1,7.65158-2.35482,38.30544,38.30544,0,0,1,8.11121-1.13065,38.31189,38.31189,0,0,1-6.84866,4.4909A63.36739,63.36739,0,0,1,590.817,438.437a64.49487,64.49487,0,0,1-7.65381,2.349A38.74619,38.74619,0,0,1,575.05371,441.92244Z" fill="#5e7c24"/><path d="M568.6308,453.25068a33.042,33.042,0,0,1,6.17592-4.33023,54.3,54.3,0,0,1,6.64716-3.12351,53.3357,53.3357,0,0,1,7.00336-2.21026,32.65994,32.65994,0,0,1,7.4786-.992,32.67137,32.67137,0,0,1-6.17369,4.336,53.34578,53.34578,0,0,1-6.64938,3.11778,54.30758,54.30758,0,0,1-7.00559,2.20451A33.04035,33.04035,0,0,1,568.6308,453.25068Z" fill="#5e7c24"/><path d="M563.55471,461.97005a24.77135,24.77135,0,0,1,5.42428-3.57284,39.56023,39.56023,0,0,1,5.81124-2.33659,38.85108,38.85108,0,0,1,6.10459-1.40109,24.50757,24.50757,0,0,1,6.49513-.15309,24.50648,24.50648,0,0,1-5.42249,3.5787,38.84944,38.84944,0,0,1-5.81347,2.33074,39.54135,39.54135,0,0,1-6.10593,1.39513A24.78368,24.78368,0,0,1,563.55471,461.97005Z" fill="#5e7c24"/><path d="M559.5477,469.79383a32.58061,32.58061,0,0,1,5.96237-4.53029,53.47133,53.47133,0,0,1,6.47685-3.34152,52.54054,52.54054,0,0,1,6.8665-2.442,32.21411,32.21411,0,0,1,7.38587-1.24183,32.20241,32.20241,0,0,1-5.9597,4.536,52.5207,52.5207,0,0,1-6.47952,3.33595,53.46246,53.46246,0,0,1-6.86873,2.43617A32.57931,32.57931,0,0,1,559.5477,469.79383Z" fill="#5e7c24"/><path d="M582.2831,427.3925a22.9313,22.9313,0,0,1,.17788-7.3224,34.503,34.503,0,0,1,1.86575-6.66142,33.9362,33.9362,0,0,1,3.14436-6.16076,22.70255,22.70255,0,0,1,4.84916-5.49349,22.68886,22.68886,0,0,1-.16941,7.32552,33.96708,33.96708,0,0,1-1.87377,6.6583,34.50711,34.50711,0,0,1-3.15283,6.15758A22.93561,22.93561,0,0,1,582.2831,427.3925Z" fill="#5e7c24"/><path d="M146.19106,473.15818l-.7832-.4707c.2207-.36621,22.041-36.73047,25.4375-45.78906l.85547.32031C168.27407,436.35643,147.09048,471.65916,146.19106,473.15818Z" fill="#8b9d36"/><path d="M163.8779,407.83008a39.22492,39.22492,0,0,1,2.10917,7.06939,66.09048,66.09048,0,0,1,1.078,7.16754,64.77407,64.77407,0,0,1,.29692,7.24176,38.69385,38.69385,0,0,1-.74452,7.34079,38.72912,38.72912,0,0,1-2.11407-7.069,64.87845,64.87845,0,0,1-1.07308-7.168,66.08876,66.08876,0,0,1-.292-7.24221A39.18943,39.18943,0,0,1,163.8779,407.83008Z" fill="#8b9d36"/><path d="M155.82464,418.84129a37.41374,37.41374,0,0,1,2.73688,6.66543,62.83586,62.83586,0,0,1,1.71952,6.86081,61.87359,61.87359,0,0,1,.94914,7.00876,37.00357,37.00357,0,0,1-.07846,7.206,36.96966,36.96966,0,0,1-2.74178-6.66448,61.87561,61.87561,0,0,1-1.71462-6.86181,62.93606,62.93606,0,0,1-.94424-7.00966A37.44758,37.44758,0,0,1,155.82464,418.84129Z" fill="#8b9d36"/><path d="M151.38741,431.66029a31.74548,31.74548,0,0,1,2.32984,6.19548,52.73757,52.73757,0,0,1,1.30358,6.34194,51.85269,51.85269,0,0,1,.5274,6.45272A31.34443,31.34443,0,0,1,155.04,457.251a31.34589,31.34589,0,0,1-2.33475-6.19481,51.76652,51.76652,0,0,1-1.29867-6.34261,52.73658,52.73658,0,0,1-.5225-6.45344A31.71454,31.71454,0,0,1,151.38741,431.66029Z" fill="#8b9d36"/><path d="M145.79952,444.45561a24.30269,24.30269,0,0,1,2.36239,5.27242,39.603,39.603,0,0,1,1.341,5.44873,38.8702,38.8702,0,0,1,.56842,5.58215,24.021,24.021,0,0,1-.46231,5.76014,24.00253,24.00253,0,0,1-2.3673-5.27158,38.93691,38.93691,0,0,1-1.33656-5.44957,39.66925,39.66925,0,0,1-.56352-5.583A24.30234,24.30234,0,0,1,145.79952,444.45561Z" fill="#8b9d36"/><path d="M140.86922,452.45315a21.8801,21.8801,0,0,1,2.4939,4.62938,37.72662,37.72662,0,0,1,1.56795,4.80235,43.10955,43.10955,0,0,1,.94691,4.92484c.10254.83591.19661,1.66714.259,2.51442a18.71227,18.71227,0,0,0,.27552,2.5746,5.05372,5.05372,0,0,1-.60631-.38273l-.49219-.49319a9.10128,9.10128,0,0,1-.86087-1.07676,17.24662,17.24662,0,0,1-1.32364-2.30366,25.65225,25.65225,0,0,1-1.7369-4.85752,28.75142,28.75142,0,0,1-.81763-5.05781A19.04022,19.04022,0,0,1,140.86922,452.45315Z" fill="#8b9d36"/><path d="M168.66643,432.71181a31.4531,31.4531,0,0,1,5.5549-4.8169,51.47733,51.47733,0,0,1,6.13981-3.66123,50.575,50.575,0,0,1,6.58295-2.78653,31.09365,31.09365,0,0,1,7.17322-1.61982,31.08484,31.08484,0,0,1-5.55177,4.82241,50.57652,50.57652,0,0,1-6.14294,3.65571,51.45484,51.45484,0,0,1-6.58562,2.781A31.45062,31.45062,0,0,1,168.66643,432.71181Z" fill="#8b9d36"/><path d="M163.21006,442.90333a38.7469,38.7469,0,0,1,6.85134-4.4851,64.50961,64.50961,0,0,1,7.307-3.27247,63.35455,63.35455,0,0,1,7.65158-2.35482,38.30562,38.30562,0,0,1,8.11122-1.13065,38.31225,38.31225,0,0,1-6.84866,4.4909,63.36815,63.36815,0,0,1-7.30919,3.26668,64.49544,64.49544,0,0,1-7.65381,2.349A38.74619,38.74619,0,0,1,163.21006,442.90333Z" fill="#8b9d36"/><path d="M156.78716,454.23157a33.042,33.042,0,0,1,6.17592-4.33023,54.30053,54.30053,0,0,1,6.64715-3.12351,53.33665,53.33665,0,0,1,7.00336-2.21026,32.65994,32.65994,0,0,1,7.4786-.992,32.67105,32.67105,0,0,1-6.17369,4.336,53.34511,53.34511,0,0,1-6.64938,3.11778,54.30709,54.30709,0,0,1-7.00559,2.20451A33.04083,33.04083,0,0,1,156.78716,454.23157Z" fill="#8b9d36"/><path d="M151.71107,462.95094a24.77129,24.77129,0,0,1,5.42427-3.57284,39.55969,39.55969,0,0,1,5.81125-2.33659,38.85082,38.85082,0,0,1,6.10459-1.40109,24.50751,24.50751,0,0,1,6.49512-.15309,24.506,24.506,0,0,1-5.42249,3.5787,38.84859,38.84859,0,0,1-5.81347,2.33074,39.541,39.541,0,0,1-6.10592,1.39513A24.78368,24.78368,0,0,1,151.71107,462.95094Z" fill="#8b9d36"/><path d="M147.70406,470.77472a32.58027,32.58027,0,0,1,5.96237-4.53029,53.46986,53.46986,0,0,1,6.47685-3.34152,52.53748,52.53748,0,0,1,6.86649-2.442,32.21365,32.21365,0,0,1,7.38588-1.24183,32.20307,32.20307,0,0,1-5.9597,4.536,52.52154,52.52154,0,0,1-6.47953,3.336,53.46232,53.46232,0,0,1-6.86872,2.43617A32.57931,32.57931,0,0,1,147.70406,470.77472Z" fill="#8b9d36"/><path d="M170.43945,428.37339a22.93158,22.93158,0,0,1,.17789-7.3224,34.50229,34.50229,0,0,1,1.86575-6.66142,33.93615,33.93615,0,0,1,3.14435-6.16076,22.70241,22.70241,0,0,1,4.84917-5.49349,22.68914,22.68914,0,0,1-.16941,7.32552,33.96729,33.96729,0,0,1-1.87378,6.6583,34.5064,34.5064,0,0,1-3.15282,6.15758A22.93566,22.93566,0,0,1,170.43945,428.37339Z" fill="#8b9d36"/><path d="M143.83755,473.65037l-.91211-.01562c.04-2.49415,1.123-61.31446,12.88965-79.94434l.77148.48828C144.95669,412.59275,143.84731,473.042,143.83755,473.65037Z" fill="#50661a"/><path d="M152.4204,402.09295a41.84152,41.84152,0,0,0,.27373-8.23382,74.0244,74.0244,0,0,0-.88985-7.98722c-.42621-2.634-1.00622-5.24171-1.68832-7.82779-.68121-2.60313-1.54164-5.10769-2.46091-7.77541a11.40859,11.40859,0,0,0-.58893,2.04709,18.24372,18.24372,0,0,0-.32188,2.08013,35.2518,35.2518,0,0,0-.18546,4.12928,53.01748,53.01748,0,0,0,.74318,8.09278,58.8166,58.8166,0,0,0,1.87243,7.87972A37.04938,37.04938,0,0,0,152.4204,402.09295Z" fill="#50661a"/><path d="M166.88319,364.84528a29.58389,29.58389,0,0,0-5.15054,6.61772,46.50923,46.50923,0,0,0-3.452,7.25341A45.7021,45.7021,0,0,0,156.114,386.451a29.26521,29.26521,0,0,0-.45206,8.37626,29.26406,29.26406,0,0,0,5.15857-6.61472,45.66041,45.66041,0,0,0,3.44394-7.25647,46.50818,46.50818,0,0,0,2.15866-7.73757A29.56906,29.56906,0,0,0,166.88319,364.84528Z" fill="#50661a"/><path d="M176.57974,379.83625a68.1494,68.1494,0,0,0-6.78268,6.24971c-2.09624,2.173-4.09663,4.39465-6.05377,6.62831l-5.81481,6.67318c-.97545,1.09276-1.96115,2.16952-3.00258,3.18944a13.71052,13.71052,0,0,1-3.54827,2.68043,6.159,6.159,0,0,0,2.42837-.06158,11.36936,11.36936,0,0,0,2.33966-.73588,22.595,22.595,0,0,0,4.16706-2.38931,40.89812,40.89812,0,0,0,6.86426-6.35029,54.18736,54.18736,0,0,0,5.45459-7.45163A38.7819,38.7819,0,0,0,176.57974,379.83625Z" fill="#50661a"/><path d="M176.57974,394.82723a56.13444,56.13444,0,0,0-8.43176,5.18587,95.52346,95.52346,0,0,0-7.56509,6.1485,93.908,93.908,0,0,0-6.9093,6.877,55.503,55.503,0,0,0-6.03415,7.8488,55.48172,55.48172,0,0,0,8.43622-5.1813,93.83547,93.83547,0,0,0,7.56108-6.15308,95.51515,95.51515,0,0,0,6.90484-6.88159A56.12814,56.12814,0,0,0,176.57974,394.82723Z" fill="#50661a"/><path d="M175.59359,406.58925a55.50774,55.50774,0,0,0-8.5187,4.92641,94.40322,94.40322,0,0,0-7.67788,5.91127,92.77833,92.77833,0,0,0-7.04081,6.65657,54.88358,54.88358,0,0,0-6.19108,7.65074,54.85685,54.85685,0,0,0,8.52316-4.92166,92.71835,92.71835,0,0,0,7.67342-5.916,94.39749,94.39749,0,0,0,7.0368-6.66125A55.48,55.48,0,0,0,175.59359,406.58925Z" fill="#50661a"/><path d="M174.93645,419.16178a51.60468,51.60468,0,0,0-8.533,4.13948,87.39193,87.39193,0,0,0-7.75813,5.17734,85.93538,85.93538,0,0,0-7.17143,5.96293,50.9947,50.9947,0,0,0-6.389,7.01077,51.04013,51.04013,0,0,0,8.53653-4.13452,85.93,85.93,0,0,0,7.75457-5.18236,87.44877,87.44877,0,0,0,7.16742-5.96789A51.6049,51.6049,0,0,0,174.93645,419.16178Z" fill="#50661a"/><path d="M175.59359,428.283a57.41348,57.41348,0,0,0-8.928,4.53308,97.79688,97.79688,0,0,0-8.14465,5.56476,96.07773,96.07773,0,0,0-7.55217,6.34561,56.74,56.74,0,0,0-6.76083,7.387,56.74368,56.74368,0,0,0,8.93152-4.52812,96.07878,96.07878,0,0,0,8.14109-5.56972,97.78428,97.78428,0,0,0,7.54815-6.35051A57.41064,57.41064,0,0,0,175.59359,428.283Z" fill="#50661a"/><path d="M177.89446,436.829a74.84536,74.84536,0,0,0-9.33232,5.17941c-2.96291,1.89673-5.82952,3.90185-8.62435,5.99464-2.80286,2.08058-5.52815,4.2497-8.20529,6.49106-2.70478,2.22212-5.25976,4.53653-8.05817,6.8286a22.56417,22.56417,0,0,0,5.22544-1.52493,51.10153,51.10153,0,0,0,4.85229-2.336,79.6416,79.6416,0,0,0,8.91726-5.80277,91.94522,91.94522,0,0,0,8.101-6.83618A58.23775,58.23775,0,0,0,177.89446,436.829Z" fill="#50661a"/><path d="M180.6884,445.70374a76.97429,76.97429,0,0,0-10.1339,4.81578c-3.23619,1.80284-6.377,3.73858-9.44555,5.77619q-4.60351,3.0555-8.985,6.42575-2.19009,1.68987-4.33826,3.44049a38.65913,38.65913,0,0,1-4.40379,3.37206,8.5063,8.5063,0,0,0,2.847-.489c.9175-.27173,1.80824-.6023,2.68918-.94614,1.757-.69748,3.45465-1.49527,5.11978-2.34066a97.1604,97.1604,0,0,0,9.59891-5.66267,109.73029,109.73029,0,0,0,8.93465-6.62146A67.91279,67.91279,0,0,0,180.6884,445.70374Z" fill="#50661a"/><path d="M149.58767,412.53391a45.424,45.424,0,0,0-1.30982-8.78875,76.32549,76.32549,0,0,0-2.526-8.34383,75.12677,75.12677,0,0,0-3.44707-8.00712,44.93532,44.93532,0,0,0-4.67485-7.558,44.939,44.939,0,0,0,1.30357,8.79087,75.12806,75.12806,0,0,0,2.53225,8.34171,76.43187,76.43187,0,0,0,3.45286,8.005A45.42374,45.42374,0,0,0,149.58767,412.53391Z" fill="#50661a"/><path d="M147.63944,422.79626a46.41405,46.41405,0,0,0-2.52244-8.62442,78.16227,78.16227,0,0,0-3.66819-8.02055,76.86111,76.86111,0,0,0-4.53576-7.56358,45.91969,45.91969,0,0,0-5.69265-6.954A45.92112,45.92112,0,0,0,133.737,400.261a76.95181,76.95181,0,0,0,3.674,8.01765,78.25562,78.25562,0,0,0,4.54111,7.56069A46.47405,46.47405,0,0,0,147.63944,422.79626Z" fill="#50661a"/><path d="M146.16512,432.72034a50.84067,50.84067,0,0,0-3.69227-8.6583,86.15419,86.15419,0,0,0-4.76535-7.93305,84.64289,84.64289,0,0,0-5.57808-7.38409,50.272,50.272,0,0,0-6.66142-6.65195,50.2684,50.2684,0,0,0,3.68737,8.66181,84.54329,84.54329,0,0,0,4.7707,7.92955,86.06283,86.06283,0,0,0,5.583,7.38069A50.84477,50.84477,0,0,0,146.16512,432.72034Z" fill="#50661a"/><path d="M145.0849,443.66925a65.558,65.558,0,0,0-5.28607-9.2927q-2.94708-4.39814-6.28915-8.47283-3.33094-4.08384-7.04795-7.85237a64.541,64.541,0,0,0-8.06039-7.02475,64.53539,64.53539,0,0,0,5.28116,9.29659q2.94708,4.39788,6.29362,8.46893,3.339,4.0779,7.05285,7.84847A65.479,65.479,0,0,0,145.0849,443.66925Z" fill="#50661a"/><path d="M144.208,455.02279a66.20645,66.20645,0,0,0-6.25974-8.73492q-3.4065-4.08927-7.17277-7.81564-3.75557-3.73677-7.8629-7.11994a65.20525,65.20525,0,0,0-8.7844-6.19186,65.208,65.208,0,0,0,6.25528,8.73927q3.4065,4.08885,7.17678,7.81129,3.76293,3.73,7.86736,7.11554A66.18077,66.18077,0,0,0,144.208,455.02279Z" fill="#50661a"/><path d="M143.67433,462.30273a57.69813,57.69813,0,0,0-6.80095-7.38432,98.30594,98.30594,0,0,0-7.582-6.351,96.56184,96.56184,0,0,0-8.17318-5.56905,57.037,57.037,0,0,0-8.96229-4.5259,57.05229,57.05229,0,0,0,6.79739,7.38922,96.642,96.642,0,0,0,7.5856,6.34611,98.37247,98.37247,0,0,0,8.1772,5.56409A57.71026,57.71026,0,0,0,143.67433,462.30273Z" fill="#50661a"/><path d="M143.38188,468.38358a61.07837,61.07837,0,0,0-7.94538-6.60625q-4.16751-2.96264-8.58869-5.48178-4.41426-2.53155-9.07552-4.63089a60.36368,60.36368,0,0,0-9.72508-3.49577,60.37026,60.37026,0,0,0,7.9427,6.61154q4.16751,2.9623,8.59136,5.47644,4.419,2.52344,9.07865,4.62558A61.08853,61.08853,0,0,0,143.38188,468.38358Z" fill="#50661a"/><path d="M143.6088,472.32784a65.96605,65.96605,0,0,0-9.29576-5.35428c-3.18938-1.53974-6.44118-2.91164-9.746-4.13975q-4.95661-1.84386-10.08664-3.22059a65.0028,65.0028,0,0,0-10.54182-1.99437,65.00462,65.00462,0,0,0,9.29352,5.36007q4.78475,2.30911,9.74827,4.134c3.30663,1.22333,6.66677,2.303,10.08887,3.2148A65.95531,65.95531,0,0,0,143.6088,472.32784Z" fill="#50661a"/><path d="M142.01138,472.01365c-.89942-1.499-22.083-36.80078-25.50977-45.93945l.85547-.32031c3.39648,9.05957,25.2168,45.42285,25.4375,45.78906Z" fill="#5e7c24"/><path d="M124.27846,406.83008a39.22412,39.22412,0,0,0-2.10917,7.06939,66.09052,66.09052,0,0,0-1.078,7.16754,64.77407,64.77407,0,0,0-.29691,7.24176,38.69464,38.69464,0,0,0,.74451,7.34079,38.72833,38.72833,0,0,0,2.11407-7.069,64.88085,64.88085,0,0,0,1.07309-7.168,66.08876,66.08876,0,0,0,.292-7.24221A39.18943,39.18943,0,0,0,124.27846,406.83008Z" fill="#5e7c24"/><path d="M132.33172,417.84129a37.41374,37.41374,0,0,0-2.73688,6.66543,62.83356,62.83356,0,0,0-1.71952,6.86081,61.87587,61.87587,0,0,0-.94915,7.00876,37.00437,37.00437,0,0,0,.07847,7.206,36.96966,36.96966,0,0,0,2.74178-6.66448A61.87561,61.87561,0,0,0,131.461,432.056a62.93841,62.93841,0,0,0,.94424-7.00966A37.44919,37.44919,0,0,0,132.33172,417.84129Z" fill="#5e7c24"/><path d="M136.769,430.66029a31.74553,31.74553,0,0,0-2.32985,6.19548,52.73754,52.73754,0,0,0-1.30357,6.34194,51.85078,51.85078,0,0,0-.5274,6.45272,31.34443,31.34443,0,0,0,.50823,6.60056,31.34652,31.34652,0,0,0,2.33475-6.19481,51.76652,51.76652,0,0,0,1.29867-6.34261,52.73856,52.73856,0,0,0,.5225-6.45344A31.71454,31.71454,0,0,0,136.769,430.66029Z" fill="#5e7c24"/><path d="M142.35684,443.45561a24.30321,24.30321,0,0,0-2.3624,5.27242,39.60592,39.60592,0,0,0-1.341,5.44873,38.87019,38.87019,0,0,0-.56841,5.58215,24.02047,24.02047,0,0,0,.46231,5.76014,24.00248,24.00248,0,0,0,2.36729-5.27158,38.93555,38.93555,0,0,0,1.33657-5.44957,39.66924,39.66924,0,0,0,.56351-5.583A24.30285,24.30285,0,0,0,142.35684,443.45561Z" fill="#5e7c24"/><path d="M147.28714,451.45315a21.88015,21.88015,0,0,0-2.49391,4.62938,37.72656,37.72656,0,0,0-1.56794,4.80235,43.11175,43.11175,0,0,0-.94692,4.92484c-.10254.83591-.1966,1.66714-.259,2.51442a18.71223,18.71223,0,0,1-.27551,2.5746,5.05372,5.05372,0,0,0,.60631-.38273l.49218-.49319a9.10138,9.10138,0,0,0,.86088-1.07676,17.24654,17.24654,0,0,0,1.32363-2.30366,25.653,25.653,0,0,0,1.73691-4.85752,28.75328,28.75328,0,0,0,.81763-5.05781A19.0406,19.0406,0,0,0,147.28714,451.45315Z" fill="#5e7c24"/><path d="M119.48992,431.71181a31.453,31.453,0,0,0-5.55489-4.8169,51.47733,51.47733,0,0,0-6.13981-3.66123,50.57511,50.57511,0,0,0-6.583-2.78653,31.09368,31.09368,0,0,0-7.17321-1.61982,31.08415,31.08415,0,0,0,5.55177,4.82241,50.5764,50.5764,0,0,0,6.14293,3.65571,51.455,51.455,0,0,0,6.58563,2.781A31.45066,31.45066,0,0,0,119.48992,431.71181Z" fill="#5e7c24"/><path d="M124.94629,441.90333a38.74647,38.74647,0,0,0-6.85133-4.4851,64.50975,64.50975,0,0,0-7.307-3.27247,63.354,63.354,0,0,0-7.65158-2.35482,38.30544,38.30544,0,0,0-8.11121-1.13065,38.31189,38.31189,0,0,0,6.84866,4.4909,63.36739,63.36739,0,0,0,7.30919,3.26668,64.49487,64.49487,0,0,0,7.65381,2.349A38.74619,38.74619,0,0,0,124.94629,441.90333Z" fill="#5e7c24"/><path d="M131.3692,453.23157a33.042,33.042,0,0,0-6.17592-4.33023,54.3,54.3,0,0,0-6.64716-3.12351,53.3357,53.3357,0,0,0-7.00336-2.21026,32.65994,32.65994,0,0,0-7.4786-.992,32.67137,32.67137,0,0,0,6.17369,4.336,53.34578,53.34578,0,0,0,6.64938,3.11778,54.30758,54.30758,0,0,0,7.00559,2.20451A33.04092,33.04092,0,0,0,131.3692,453.23157Z" fill="#5e7c24"/><path d="M136.44529,461.95094a24.77135,24.77135,0,0,0-5.42428-3.57284,39.55913,39.55913,0,0,0-5.81124-2.33659,38.85108,38.85108,0,0,0-6.10459-1.40109,24.50757,24.50757,0,0,0-6.49513-.15309,24.50648,24.50648,0,0,0,5.42249,3.5787,38.84944,38.84944,0,0,0,5.81347,2.33074,39.54135,39.54135,0,0,0,6.10593,1.39513A24.78368,24.78368,0,0,0,136.44529,461.95094Z" fill="#5e7c24"/><path d="M140.4523,469.77472a32.58061,32.58061,0,0,0-5.96237-4.53029,53.47133,53.47133,0,0,0-6.47685-3.34152,52.53762,52.53762,0,0,0-6.8665-2.442,32.21357,32.21357,0,0,0-7.38587-1.24183,32.20241,32.20241,0,0,0,5.9597,4.536,52.5207,52.5207,0,0,0,6.47952,3.336,53.46246,53.46246,0,0,0,6.86873,2.43617A32.57931,32.57931,0,0,0,140.4523,469.77472Z" fill="#5e7c24"/><path d="M117.7169,427.37339a22.9313,22.9313,0,0,0-.17788-7.3224,34.503,34.503,0,0,0-1.86575-6.66142,33.9362,33.9362,0,0,0-3.14436-6.16076,22.70236,22.70236,0,0,0-4.84916-5.49349,22.68886,22.68886,0,0,0,.16941,7.32552,33.96727,33.96727,0,0,0,1.87377,6.6583,34.50711,34.50711,0,0,0,3.15283,6.15758A22.93561,22.93561,0,0,0,117.7169,427.37339Z" fill="#5e7c24"/><rect x="103.46803" y="472.53689" width="500" height="2" fill="#935b50"/></svg>