<?xml version="1.0" encoding="UTF-8" standalone="no"?><svg xmlns="http://www.w3.org/2000/svg" viewBox="0 0 28.87 28.87"><defs><style>.cls-1{fill:#fd3832;}.cls-2{fill:#fff;fill-rule:evenodd;}</style></defs><title>Asset 8</title><g id="Layer_2" data-name="Layer 2"><g id="Layer_1-2" data-name="Layer 1"><rect class="cls-1" width="28.87" height="28.87" rx="6.48" ry="6.48" fill="#fd3832"/><path class="cls-2" d="M8 19.77a1.88 1.88 0 0 1-1.24-1.21c-.54-1.48-.7-7.66.34-8.88A2 2 0 0 1 8.46 9c2.79-.3 11.41-.26 12.4.1a1.94 1.94 0 0 1 1.22 1.17c.59 1.53.61 7.09-.08 8.56a1.89 1.89 0 0 1-.87.88c-1.04.52-11.75.51-13.13.06zm4.43-2.9l5-2.6-5-2.62z" fill="#fff" fill-rule="evenodd"/></g></g><metadata><rdf:RDF xmlns:rdf="http://www.w3.org/1999/02/22-rdf-syntax-ns#" xmlns:rdfs="http://www.w3.org/2000/01/rdf-schema#" xmlns:dc="http://purl.org/dc/elements/1.1/"><rdf:Description about="https://iconscout.com/legal#licenses" dc:title="asset" dc:description="asset" dc:publisher="Iconscout" dc:date="2017-09-17" dc:format="image/svg+xml" dc:language="en"><dc:creator><rdf:Bag><rdf:li>Stone Hub</rdf:li></rdf:Bag></dc:creator></rdf:Description></rdf:RDF></metadata></svg>